<?xml version="1.0" encoding="UTF-8"?>
<svg version="1.1" xmlns="http://www.w3.org/2000/svg" width="1350" height="1519">
<path d="M0 0 C445.5 0 891 0 1350 0 C1350 501.27 1350 1002.54 1350 1519 C904.5 1519 459 1519 0 1519 C0 1017.73 0 516.46 0 0 Z " fill="#286894" transform="translate(0,0)"/>
<path d="M0 0 C43.89 0 87.78 0 133 0 C133 274.89 133 549.78 133 833 C108 832 108 832 99 831 C96.95307324 830.89968025 94.90451354 830.82632718 92.85546875 830.7890625 C91.76556641 830.76070312 90.67566406 830.73234375 89.55273438 830.703125 C87.32112578 830.65131749 85.08933081 830.60696555 82.85742188 830.5703125 C75.21800708 830.35423005 68.33183177 829.15159821 61 827 C61 826.67 61 826.34 61 826 C62.98 825.67 64.96 825.34 67 825 C56.00622969 821.3921373 45.58596369 818.6423495 34 817.9375 C23.3641408 817.27286928 15.44406083 814.91700373 6 809.875 C1.55450982 807.50470652 -3.22951112 806.73628219 -8.14453125 805.80859375 C-11.03634871 804.989707 -12.16800451 804.32052762 -14 802 C-13.01 801.67 -12.02 801.34 -11 801 C-19.43161899 795.22808795 -19.43161899 795.22808795 -29 792 C-29 792.66 -29 793.32 -29 794 C-28.01 794.33 -27.02 794.66 -26 795 C-29.26941619 796.05649257 -29.93418435 796.02437617 -33.375 794.75 C-45.8206138 788.02014957 -58.02511901 776.97488099 -68 767 C-70.06874034 766.3574765 -70.06874034 766.3574765 -72 766 C-71.505 767.485 -71.505 767.485 -71 769 C-76.49152542 768.38983051 -76.49152542 768.38983051 -78.875 766.5625 C-80 765 -80 765 -80 763 C-79.34 763 -78.68 763 -78 763 C-78.433125 762.51789062 -78.86625 762.03578125 -79.3125 761.5390625 C-79.869375 760.90742187 -80.42625 760.27578125 -81 759.625 C-81.556875 758.99851562 -82.11375 758.37203125 -82.6875 757.7265625 C-84 756 -84 756 -84 754 C-83.34 754 -82.68 754 -82 754 C-82 753.34 -82 752.68 -82 752 C-84.64 751.34 -87.28 750.68 -90 750 C-89.34 749.01 -88.68 748.02 -88 747 C-89.2375 745.576875 -89.2375 745.576875 -90.5 744.125 C-93 741.25 -93 741.25 -93 739 C-92.34 739 -91.68 739 -91 739 C-91.66 738.34 -92.32 737.68 -93 737 C-93.99 737.33 -94.98 737.66 -96 738 C-98.6875 737.0625 -98.6875 737.0625 -101 736 C-101 735.34 -101 734.68 -101 734 C-100.34 733.67 -99.68 733.34 -99 733 C-99.66 732.38125 -100.32 731.7625 -101 731.125 C-103 729 -103 729 -103 727 C-101.35 726.34 -99.7 725.68 -98 725 C-98.33 723.68 -98.66 722.36 -99 721 C-99.5775 721.20625 -100.155 721.4125 -100.75 721.625 C-103.51967567 722.08661261 -104.64561267 721.42944945 -107 720 C-107 719.34 -107 718.68 -107 718 C-106.34 718 -105.68 718 -105 718 C-105 717.34 -105 716.68 -105 716 C-105.99 716 -106.98 716 -108 716 C-108.66 714.35 -109.32 712.7 -110 711 C-109.34 710.67 -108.68 710.34 -108 710 C-108.99 708.02 -109.98 706.04 -111 704 C-110.34 703.34 -109.68 702.68 -109 702 C-111.97 700.515 -111.97 700.515 -115 699 C-114.67 698.34 -114.34 697.68 -114 697 C-113.34 697 -112.68 697 -112 697 C-112.350625 696.278125 -112.70125 695.55625 -113.0625 694.8125 C-114.10409017 691.6877295 -113.89096572 690.11838004 -113 687 C-113.556875 687.226875 -114.11375 687.45375 -114.6875 687.6875 C-117.92123084 688.12449065 -119.39073978 686.81198627 -122 685 C-119.68143083 683.45428722 -117.49361571 682.20381448 -115 681 C-115.99 680.34 -116.98 679.68 -118 679 C-118 678.34 -118 677.68 -118 677 C-117.34 677 -116.68 677 -116 677 C-116.33 676.34 -116.66 675.68 -117 675 C-117.99 675 -118.98 675 -120 675 C-120.93423645 671.98968256 -121.04449911 671.13349732 -120 668 C-121.32 667.34 -122.64 666.68 -124 666 C-124 665.34 -124 664.68 -124 664 C-123.34 664 -122.68 664 -122 664 C-122.33 662.35 -122.66 660.7 -123 659 C-124.32 659.33 -125.64 659.66 -127 660 C-127 659.01 -127 658.02 -127 657 C-124.36 655.68 -121.72 654.36 -119 653 C-119.33 651.68 -119.66 650.36 -120 649 C-119.34 648.34 -118.68 647.68 -118 647 C-119.98 645.515 -119.98 645.515 -122 644 C-121.34 643.67 -120.68 643.34 -120 643 C-120 641.35 -120 639.7 -120 638 C-119.34 638 -118.68 638 -118 638 C-118.33 636.68 -118.66 635.36 -119 634 C-121.76276177 634.52268466 -124.3260876 635.10869587 -127 636 C-129.1875 635.0625 -129.1875 635.0625 -131 634 C-131 633.34 -131 632.68 -131 632 C-129.68 631.67 -128.36 631.34 -127 631 C-127.309375 629.576875 -127.309375 629.576875 -127.625 628.125 C-127.74875 627.09375 -127.8725 626.0625 -128 625 C-127.34 624.34 -126.68 623.68 -126 623 C-126.32326553 619.40320934 -126.32326553 619.40320934 -127 616 C-128.32 615.67 -129.64 615.34 -131 615 C-131 613 -131 613 -129 611 C-129.32198966 607.90073181 -129.32198966 607.90073181 -130 605 C-129.01 604.67 -128.02 604.34 -127 604 C-127 603.01 -127 602.02 -127 601 C-127.99 600.67 -128.98 600.34 -130 600 C-126.91190305 598.23537317 -125.76687864 598 -122 598 C-122 596.35 -122 594.7 -122 593 C-121.01 592.67 -120.02 592.34 -119 592 C-119 591.01 -119 590.02 -119 589 C-119.598125 589.33 -120.19625 589.66 -120.8125 590 C-123 591 -123 591 -126 591 C-126 589.35 -126 587.7 -126 586 C-125.34 585.67 -124.68 585.34 -124 585 C-124.061875 584.236875 -124.12375 583.47375 -124.1875 582.6875 C-123.96205578 579.45613285 -123.18131991 579.18131991 -121 577 C-121.22757731 574.83700789 -121.22757731 574.83700789 -122 573 C-120.68 572.67 -119.36 572.34 -118 572 C-118 571.01 -118 570.02 -118 569 C-118.55429688 569.28875 -119.10859375 569.5775 -119.6796875 569.875 C-120.40414063 570.24625 -121.12859375 570.6175 -121.875 571 C-122.59429688 571.37125 -123.31359375 571.7425 -124.0546875 572.125 C-126 573 -126 573 -128 573 C-128.66 571.68 -129.32 570.36 -130 569 C-128.68 568.34 -127.36 567.68 -126 567 C-126 566.34 -126 565.68 -126 565 C-126.66 564.34 -127.32 563.68 -128 563 C-124.25 560 -124.25 560 -122 560 C-122 559.34 -122 558.68 -122 558 C-122.99 557.67 -123.98 557.34 -125 557 C-125 556.34 -125 555.68 -125 555 C-124.34 554.67 -123.68 554.34 -123 554 C-122.835 553.01 -122.67 552.02 -122.5 551 C-122.335 550.01 -122.17 549.02 -122 548 C-121.34 547.67 -120.68 547.34 -120 547 C-119.505 546.154375 -119.01 545.30875 -118.5 544.4375 C-118.005 543.633125 -117.51 542.82875 -117 542 C-116.34 542 -115.68 542 -115 542 C-115 541.01 -115 540.02 -115 539 C-115.99 538.67 -116.98 538.34 -118 538 C-115.525 535.525 -115.525 535.525 -113 533 C-115.97 531.515 -115.97 531.515 -119 530 C-117.625 528.5 -117.625 528.5 -116 527 C-115.34 527 -114.68 527 -114 527 C-114 525.68 -114 524.36 -114 523 C-113.01 522.34 -112.02 521.68 -111 521 C-110.31731862 519.67479497 -109.6492959 518.34187818 -109 517 C-108.34 516.67 -107.68 516.34 -107 516 C-106.67 515.01 -106.34 514.02 -106 513 C-106.99 512.67 -107.98 512.34 -109 512 C-108.195625 511.236875 -107.39125 510.47375 -106.5625 509.6875 C-103.83200976 507.20569102 -103.83200976 507.20569102 -103 504 C-101.4375 502.3125 -101.4375 502.3125 -100 501 C-100.78375 501.350625 -101.5675 501.70125 -102.375 502.0625 C-103.674375 502.5265625 -103.674375 502.5265625 -105 503 C-105.66 502.67 -106.32 502.34 -107 502 C-106.6875 499.625 -106.6875 499.625 -106 497 C-105.01 496.34 -104.02 495.68 -103 495 C-101.94228261 493.36935236 -100.94726954 491.69719127 -100 490 C-99.4225 489.13375 -98.845 488.2675 -98.25 487.375 C-97.63125 486.199375 -97.63125 486.199375 -97 485 C-97.495 483.515 -97.495 483.515 -98 482 C-97.360625 481.401875 -96.72125 480.80375 -96.0625 480.1875 C-93.79689611 478.09189663 -93.79689611 478.09189663 -93 475 C-92.01 474.34 -91.02 473.68 -90 473 C-90 472.34 -90 471.68 -90 471 C-94.21912747 471.4794463 -96.79663178 472.16625119 -100 475 C-100.33 473.02 -100.66 471.04 -101 469 C-100.360625 468.5875 -99.72125 468.175 -99.0625 467.75 C-96.8468705 466.22556288 -96.8468705 466.22556288 -96.5625 464.0625 C-96 462 -96 462 -93.5625 460.0625 C-90.69891764 457.75766541 -90.23451255 456.37433431 -89 453 C-87.71332828 451.29705213 -86.38903267 449.62053812 -85 448 C-85.78375 448.474375 -86.5675 448.94875 -87.375 449.4375 C-88.88948678 450.33898023 -90.4235897 451.21179485 -92 452 C-89.21252059 442.74794069 -89.21252059 442.74794069 -86 439 C-85.525625 438.175 -85.05125 437.35 -84.5625 436.5 C-83 434 -83 434 -80.875 432 C-78.79898846 430.13804407 -78.79898846 430.13804407 -78.5 427.5 C-78 425 -78 425 -75.9375 423 C-75.298125 422.34 -74.65875 421.68 -74 421 C-74.020625 420.2575 -74.04125 419.515 -74.0625 418.75 C-73.91986527 412.47407183 -68.17563794 406.38977322 -64 402 C-61.875 401.375 -61.875 401.375 -60 401 C-57.61579539 398.44549506 -57 397.5595477 -57 394 C-55.7391298 392.05522029 -54.39413245 390.16408216 -53 388.3125 C-52.2575 387.31863281 -51.515 386.32476562 -50.75 385.30078125 C-50.1725 384.54152344 -49.595 383.78226562 -49 383 C-49.66 383 -50.32 383 -51 383 C-52.81240747 385.01608167 -52.81240747 385.01608167 -54.625 387.5 C-55.57246094 388.75296875 -55.57246094 388.75296875 -56.5390625 390.03125 C-57.02117187 390.6809375 -57.50328125 391.330625 -58 392 C-58.33 391.34 -58.66 390.68 -59 390 C-57.63713735 386.7721674 -56.13648097 384.16956726 -53.9375 381.4375 C-51.59835298 378.49470214 -50.33871608 375.75003309 -49.625 372.0625 C-49 370 -49 370 -47 367.0625 C-44.90143632 364.28108863 -44.90143632 364.28108863 -44.58984375 361.75390625 C-43.82056506 358.16224083 -42.23566949 355.11229331 -40.5625 351.875 C-40.24990234 351.25496094 -39.93730469 350.63492187 -39.61523438 349.99609375 C-38.20018375 347.2138589 -36.7336571 344.60048565 -35 342 C-34.63557767 340.33985384 -34.30027117 338.67293936 -34 337 C-33.67 336.34 -33.34 335.68 -33 335 C-33.99 334.67 -34.98 334.34 -36 334 C-35.566875 333.14277344 -35.13375 332.28554688 -34.6875 331.40234375 C-34.130625 330.25894531 -33.57375 329.11554688 -33 327.9375 C-32.443125 326.81214844 -31.88625 325.68679688 -31.3125 324.52734375 C-29.79802108 321.10003266 -29.79802108 321.10003266 -30.03125 317.625 C-29.99006839 312.84793336 -28.41568735 309.3783439 -26.5 305.0625 C-26.16613281 304.28326172 -25.83226562 303.50402344 -25.48828125 302.70117188 C-24.67007611 300.79592277 -23.83658323 298.89725125 -23 297 C-26.27922793 300.0115591 -27.55263792 303.41675203 -29.125 307.5 C-45.61102289 348.61813245 -45.61102289 348.61813245 -59 363 C-59.66 363 -60.32 363 -61 363 C-59.29899841 358.38417529 -56.89567277 354.52222878 -54.2421875 350.40234375 C-52.69379664 347.85856318 -52.69379664 347.85856318 -53 344 C-52.11675184 342.00755647 -51.05881065 340.18108661 -49.97265625 338.29296875 C-48.83560279 335.90134061 -48.83560279 335.90134061 -48.58203125 332.69921875 C-47.91950001 328.48836584 -46.56033294 325.37570723 -44.625 321.625 C-44.32078125 320.99722656 -44.0165625 320.36945313 -43.703125 319.72265625 C-41.38037744 315.12679248 -41.38037744 315.12679248 -38 314 C-36.52698031 311.21956473 -36.52698031 311.21956473 -35.3125 307.9375 C-34.87550781 306.83277344 -34.43851563 305.72804688 -33.98828125 304.58984375 C-33.66214844 303.73519531 -33.33601563 302.88054687 -33 302 C-33.66 301.67 -34.32 301.34 -35 301 C-34.566875 299.78183594 -34.13375 298.56367188 -33.6875 297.30859375 C-33.12443562 295.68509146 -32.56196711 294.06138243 -32 292.4375 C-31.71382812 291.63763672 -31.42765625 290.83777344 -31.1328125 290.01367188 C-29.45132805 285.10934224 -28.9029751 281.22721671 -29 276 C-28.40524103 273.54396408 -27.73526445 271.10519247 -27 268.6875 C-25.52961402 263.58509237 -24.77897586 259.131845 -25.05859375 253.828125 C-24.92051874 247.16370467 -23.27201553 240.52665111 -22 234 C-22.66 234 -23.32 234 -24 234 C-24.18175781 235.49853516 -24.18175781 235.49853516 -24.3671875 237.02734375 C-24.53476563 238.31769531 -24.70234375 239.60804688 -24.875 240.9375 C-25.03742188 242.22527344 -25.19984375 243.51304687 -25.3671875 244.83984375 C-25.57601563 245.88269531 -25.78484375 246.92554688 -26 248 C-26.66 248.33 -27.32 248.66 -28 249 C-30.41573681 244.77246059 -30.06936753 241.15625632 -29.5625 236.4453125 C-29.47226563 235.58292969 -29.38203125 234.72054687 -29.2890625 233.83203125 C-29.09717898 232.03506798 -28.90447772 230.23819184 -28.7109375 228.44140625 C-27.76509224 220.54555818 -27.76509224 220.54555818 -28.50270081 212.68666077 C-29.03108248 209.83207676 -29.10630639 207.23546762 -29.08178711 204.33374023 C-29.0752562 203.21744736 -29.06872528 202.10115448 -29.06199646 200.95103455 C-29.05056107 199.74902908 -29.03912567 198.54702362 -29.02734375 197.30859375 C-29.01467749 194.72721498 -29.00231806 192.14583469 -28.99023438 189.56445312 C-28.96673676 185.52346593 -28.93787722 181.48256584 -28.90405273 177.44165039 C-28.79207014 163.15637446 -28.80230162 149.08293719 -30.56469727 134.89086914 C-30.9389425 131.54575059 -31.08467476 128.36009355 -31 125 C-30.01 125 -29.02 125 -28 125 C-27.505 123.515 -27.505 123.515 -27 122 C-26.67 123.65 -26.34 125.3 -26 127 C-24.77951372 124.18220877 -24.77951372 124.18220877 -25.4375 121.9375 C-26.10827606 118.43455836 -26.02765751 115.15324308 -25.9375 111.59765625 C-25.9363504 108.94668271 -25.9363504 108.94668271 -26.5 106.1640625 C-27.0797018 102.49563708 -27.05909176 99.02420095 -27 95.3125 C-26.868107 90.05924205 -26.868107 90.05924205 -28 85 C-29.485 84.505 -29.485 84.505 -31 84 C-32.17755913 81.05610218 -32.03348696 80.10046087 -31 77 C-31.165 76.34 -31.33 75.68 -31.5 75 C-32 73 -32 73 -31 70 C-31.2784375 68.9790625 -31.2784375 68.9790625 -31.5625 67.9375 C-31.7790625 66.9784375 -31.7790625 66.9784375 -32 66 C-31.34 65.34 -30.68 64.68 -30 64 C-28.51993998 67.93716478 -27.04110503 71.87478859 -25.5625 75.8125 C-25.14162109 76.93205078 -24.72074219 78.05160156 -24.28710938 79.20507812 C-23.88427734 80.27822266 -23.48144531 81.35136719 -23.06640625 82.45703125 C-22.69459229 83.44678955 -22.32277832 84.43654785 -21.93969727 85.45629883 C-21.26127575 87.29274305 -20.61909475 89.14271574 -20 91 C-19.34 91.33 -18.68 91.66 -18 92 C-18.99 88.7 -19.98 85.4 -21 82 C-20.34 82 -19.68 82 -19 82 C-19.556875 80.1128125 -19.556875 80.1128125 -20.125 78.1875 C-20.7578125 76.04296875 -20.7578125 76.04296875 -21 74 C-20.01 72.515 -20.01 72.515 -19 71 C-18.79530967 68.09227533 -18.79530967 68.09227533 -18.9375 64.9375 C-19.09758898 59.19517796 -19.09758898 59.19517796 -18 57 C-18.60760482 54.6505947 -19.27129528 52.31470912 -20 50 C-19.34 49.67 -18.68 49.34 -18 49 C-17.71125 49.639375 -17.4225 50.27875 -17.125 50.9375 C-16.17176549 53.15206079 -16.17176549 53.15206079 -14 54 C-14.185625 53.071875 -14.37125 52.14375 -14.5625 51.1875 C-15 48 -15 48 -14 45 C-15.485 45.495 -15.485 45.495 -17 46 C-17.99 43.69 -18.98 41.38 -20 39 C-19.484375 38.401875 -18.96875 37.80375 -18.4375 37.1875 C-17.963125 36.465625 -17.48875 35.74375 -17 35 C-17.33 34.01 -17.66 33.02 -18 32 C-17.835 31.236875 -17.67 30.47375 -17.5 29.6875 C-16.91397109 26.53759463 -17.34806642 24.11479378 -18 21 C-16.35 20.67 -14.7 20.34 -13 20 C-13 20.66 -13 21.32 -13 22 C-12.01 22 -11.02 22 -10 22 C-10.99 17.05 -10.99 17.05 -12 12 C-11.34 12 -10.68 12 -10 12 C-10.495 11.1028125 -10.495 11.1028125 -11 10.1875 C-12 8 -12 8 -12 5 C-10.68 4.67 -9.36 4.34 -8 4 C-7.01 5.485 -7.01 5.485 -6 7 C-4.03247172 8.06246527 -2.03412421 9.07137808 0 10 C-0.185625 9.38125 -0.37125 8.7625 -0.5625 8.125 C-1 6 -1 6 0 4 C0 2.68 0 1.36 0 0 Z M-127 613 C-127 613.99 -127 614.98 -127 616 C-126.01 616 -125.02 616 -124 616 C-124 615.34 -124 614.68 -124 614 C-124.99 613.67 -125.98 613.34 -127 613 Z " fill="#243167" transform="translate(1217,0)"/>
<path d="M0 0 C25.08 0 50.16 0 76 0 C76.33 1.32 76.66 2.64 77 4 C75.68 4 74.36 4 73 4 C73.33 4.99 73.66 5.98 74 7 C73.34 7 72.68 7 72 7 C72.99 10.465 72.99 10.465 74 14 C72.35 14.33 70.7 14.66 69 15 C68.01 12.03 68.01 12.03 67 9 C66.34 9 65.68 9 65 9 C65.185625 9.9075 65.37125 10.815 65.5625 11.75 C65.96437185 14.73533375 66.12980298 16.2696428 65 19 C64 20 63 21 62 22 C60.83728782 25.00367313 61.02255074 26.95904675 62 30 C59.525 30.99 59.525 30.99 57 32 C54 25.375 54 25.375 54 22 C53.34 22.66 52.68 23.32 52 24 C52 24.66 52 25.32 52 26 C51.2265625 26.680625 51.2265625 26.680625 50.4375 27.375 C49.963125 27.91125 49.48875 28.4475 49 29 C49.3574765 30.93125966 49.3574765 30.93125966 50 33 C49.5625 35.75 49.5625 35.75 49 38 C46.525 38.495 46.525 38.495 44 39 C43.67 38.01 43.34 37.02 43 36 C42.34 35.67 41.68 35.34 41 35 C41.31195312 35.80824219 41.62390625 36.61648437 41.9453125 37.44921875 C42.33460938 38.51785156 42.72390625 39.58648437 43.125 40.6875 C43.51945312 41.74324219 43.91390625 42.79898438 44.3203125 43.88671875 C45.10227589 47.46847061 44.72168478 48.82615936 43 52 C42.443125 52.78375 41.88625 53.5675 41.3125 54.375 C39.54206626 57.91586747 40.30422431 60.17323368 41 64 C40.5625 66.3125 40.5625 66.3125 40 68 C40 68.66 40 69.32 40 70 C39.01 70.66 38.02 71.32 37 72 C37.33 74.31 37.66 76.62 38 79 C37.01 79.33 36.02 79.66 35 80 C34.34 78.35 33.68 76.7 33 75 C33.01160156 75.88042969 33.02320313 76.76085937 33.03515625 77.66796875 C33.04417969 78.82941406 33.05320312 79.99085937 33.0625 81.1875 C33.07410156 82.33605469 33.08570313 83.48460938 33.09765625 84.66796875 C33.01169393 87.60100294 32.58641824 90.14182709 32 93 C32.32670903 95.00109278 32.65977214 97.00116131 33 99 C32.625 101.0625 32.625 101.0625 32 103 C31.7834375 104.2065625 31.7834375 104.2065625 31.5625 105.4375 C30.97500772 108.11385371 30.07766829 110.48544067 29 113 C28.67 113 28.34 113 28 113 C27.66127487 111.58461283 27.32925376 110.16762037 27 108.75 C26.814375 107.96109375 26.62875 107.1721875 26.4375 106.359375 C26 104 26 104 26 100 C25.34 100.66 24.68 101.32 24 102 C24.185625 102.969375 24.37125 103.93875 24.5625 104.9375 C24.706875 105.948125 24.85125 106.95875 25 108 C24.50886719 108.47050781 24.01773437 108.94101563 23.51171875 109.42578125 C21.78668241 110.87944004 21.78668241 110.87944004 21.890625 113.015625 C22.00921875 113.75296875 22.1278125 114.4903125 22.25 115.25 C22.36601563 116.04664062 22.48203125 116.84328125 22.6015625 117.6640625 C22.94054192 119.6514124 23.28245878 121.63826091 23.625 123.625 C24 127 24 127 23.46484375 130.25390625 C22.97203712 134.22534791 23.30090467 137.37226613 23.9375 141.3125 C24.7288641 146.63574253 25.18288954 151.67221529 24.97265625 157.046875 C24.90442911 159.21814819 24.90442911 159.21814819 26 162 C26.21667038 163.93098348 26.38904948 165.86708691 26.53515625 167.8046875 C26.66567383 169.51591797 26.66567383 169.51591797 26.79882812 171.26171875 C26.88583984 172.45410156 26.97285156 173.64648438 27.0625 174.875 C27.19881836 176.65197266 27.19881836 176.65197266 27.33789062 178.46484375 C28.00792914 187.40204926 28.00792914 187.40204926 27.96264648 190.81689453 C27.74671323 192.97834866 27.74671323 192.97834866 29 194 C28.99086312 197.53140589 28.86652953 201.05291197 28.7421875 204.58203125 C29.01985397 208.26321557 29.67134571 209.28730064 32 212 C32 212.99 32 213.98 32 215 C32.165 215.721875 32.33 216.44375 32.5 217.1875 C33 220 33 220 33 228 C33.99 220.74 34.98 213.48 36 206 C37.65 206.99 39.3 207.98 41 209 C41.48828125 211.8125 41.48828125 211.8125 41.3125 215 C41.26738281 216.051875 41.22226563 217.10375 41.17578125 218.1875 C41.11777344 219.115625 41.05976562 220.04375 41 221 C40.88876527 223.91052489 40.88876527 223.91052489 41.53125 226.328125 C42.05441975 229.31019258 41.85675033 231.75005408 41.5 234.75 C41.2946026 236.49587791 41.1177163 238.24602718 41 240 C41.33 240.33 41.66 240.66 42 241 C41.93407208 243.82591027 41.80652791 246.6184948 41.625 249.4375 C41.55055664 250.67004517 41.55055664 250.67004517 41.47460938 251.92749023 C41.11823148 257.6346115 40.66052936 263.31944749 40 269 C39.81195947 270.66660577 39.62444746 272.33327126 39.4375 274 C39.35371094 274.721875 39.26992187 275.44375 39.18359375 276.1875 C38.96640753 278.02800722 38.96640753 278.02800722 39 280 C38.38384216 285.91511523 36.80937051 291.34429471 35 297 C36.98 296.34 38.96 295.68 41 295 C41.185625 293.3603125 41.185625 293.3603125 41.375 291.6875 C42 288 42 288 44 285 C45.34799697 289.50180119 44.52972156 292.41083532 43.0625 296.8125 C42.68222656 297.97394531 42.30195312 299.13539063 41.91015625 300.33203125 C41.60980469 301.21246094 41.30945312 302.09289062 41 303 C41.66 303 42.32 303 43 303 C40.67685461 313.04483814 36.83099184 322.45925594 33 332 C33.66 332 34.32 332 35 332 C32.91939581 338.94281613 30.07337182 345.31897565 26.875 351.8125 C25.97315656 353.65067664 25.07458158 355.49046139 24.1796875 357.33203125 C23.58776611 358.53436401 23.58776611 358.53436401 22.98388672 359.76098633 C21.95209586 361.93186694 21.95209586 361.93186694 21.49267578 364.08862305 C20.7040898 367.14800839 18.80057331 369.44434756 17 372 C17.99 373.485 17.99 373.485 19 375 C17.59758231 385.61522313 8.63806058 396.1761615 3 405 C3.66 405.33 4.32 405.66 5 406 C-0.77911707 414.20142785 -6.67236645 422.26996243 -12.87109375 430.16015625 C-14.77383623 432.69830998 -16.42933264 435.24754434 -18 438 C-16.88625 436.88625 -16.88625 436.88625 -15.75 435.75 C-13.5 433.5 -11.25 431.25 -9 429 C-9 429.99 -9 430.98 -9 432 C-8.34 432.33 -7.68 432.66 -7 433 C-8.96305207 437.42709138 -12.03129467 440.78538172 -15.125 444.46484375 C-16.96176963 446.94830935 -17.89580246 449.14017456 -19 452 C-19.93594244 453.28268434 -20.91639031 454.53402205 -21.9375 455.75 C-24.19312851 458.63611744 -25.49855346 461.0424454 -26.5 464.5625 C-27.88406076 469.3941303 -30.49925113 472.47659256 -34 476 C-33.67 476.66 -33.34 477.32 -33 478 C-32.32453125 477.32453125 -31.6490625 476.6490625 -30.953125 475.953125 C-26.96875 471.96875 -22.984375 467.984375 -19 464 C-19.66 465.65 -20.32 467.3 -21 469 C-20.01 469.33 -19.02 469.66 -18 470 C-18.53109375 470.65226562 -19.0621875 471.30453125 -19.609375 471.9765625 C-24.1260032 477.49881162 -24.1260032 477.49881162 -28.25 483.3125 C-30.01483601 486.02278387 -31.94522609 488.50491739 -34 491 C-33.34 492.32 -32.68 493.64 -32 495 C-32.40992188 495.45890625 -32.81984375 495.9178125 -33.2421875 496.390625 C-33.78101563 497.00421875 -34.31984375 497.6178125 -34.875 498.25 C-35.40867187 498.85328125 -35.94234375 499.4565625 -36.4921875 500.078125 C-37.9835818 501.97907317 -38.93794025 503.8404785 -40 506 C-41.29470975 507.37086915 -42.62150897 508.71340837 -44 510 C-42.35 509.34 -40.7 508.68 -39 508 C-38.01 508.99 -37.02 509.98 -36 511 C-39.75 515.875 -39.75 515.875 -42 517 C-42.185625 517.8971875 -42.185625 517.8971875 -42.375 518.8125 C-43.21149471 521.7402315 -44.70682772 523.05427807 -47 525 C-47.66 525 -48.32 525 -49 525 C-48.01 525.99 -47.02 526.98 -46 528 C-46.64669414 529.34313399 -47.31903578 530.67391178 -48 532 C-48.45375 532.886875 -48.9075 533.77375 -49.375 534.6875 C-51.3017544 537.42941972 -51.92585949 537.23146487 -55 538 C-56.04644066 539.63790712 -57.0398183 541.31008021 -58 543 C-59.62836738 544.7041054 -61.28769752 546.38025441 -63 548 C-62.27683594 547.45859375 -62.27683594 547.45859375 -61.5390625 546.90625 C-60.90742187 546.4421875 -60.27578125 545.978125 -59.625 545.5 C-58.99851562 545.0359375 -58.37203125 544.571875 -57.7265625 544.09375 C-56 543 -56 543 -54 543 C-54 543.99 -54 544.98 -54 546 C-54.99 546.66 -55.98 547.32 -57 548 C-56.95875 548.94875 -56.9175 549.8975 -56.875 550.875 C-57 554 -57 554 -59.375 556.375 C-62 558 -62 558 -64 558 C-64 560.31 -64 562.62 -64 565 C-64.99 565.33 -65.98 565.66 -67 566 C-67.495 568.475 -67.495 568.475 -68 571 C-68.66 571 -69.32 571 -70 571 C-69.67 571.66 -69.34 572.32 -69 573 C-67.68 572.34 -66.36 571.68 -65 571 C-64.34 571.66 -63.68 572.32 -63 573 C-63.25 575.0625 -63.25 575.0625 -64 577 C-64.66 577.33 -65.32 577.66 -66 578 C-65.79375 578.7425 -65.5875 579.485 -65.375 580.25 C-64.94373367 583.41261975 -65.51021332 584.28333017 -67 587 C-67 588.32 -67 589.64 -67 591 C-67.66 591.33 -68.32 591.66 -69 592 C-68.95875 592.94875 -68.9175 593.8975 -68.875 594.875 C-69 598 -69 598 -71 600 C-68.03 598.68 -65.06 597.36 -62 596 C-61.67 597.65 -61.34 599.3 -61 601 C-61.99 601.66 -62.98 602.32 -64 603 C-64 602.34 -64 601.68 -64 601 C-65.11375 601.66 -66.2275 602.32 -67.375 603 C-70.75 605 -70.75 605 -73 605 C-72.505 607.97 -72.505 607.97 -72 611 C-72.99 611.33 -73.98 611.66 -75 612 C-74.79375 612.94875 -74.5875 613.8975 -74.375 614.875 C-74.25125 615.90625 -74.1275 616.9375 -74 618 C-74.66 618.66 -75.32 619.32 -76 620 C-76 620.99 -76 621.98 -76 623 C-75.45730469 622.69964844 -74.91460938 622.39929688 -74.35546875 622.08984375 C-73.64003906 621.70957031 -72.92460938 621.32929687 -72.1875 620.9375 C-71.47980469 620.55464844 -70.77210937 620.17179688 -70.04296875 619.77734375 C-68 619 -68 619 -65 620 C-65.33 620.66 -65.66 621.32 -66 622 C-66.66 622 -67.32 622 -68 622 C-67.7215625 623.3921875 -67.7215625 623.3921875 -67.4375 624.8125 C-67 628 -67 628 -68 631 C-68.35543427 633.33006911 -68.6913753 635.66327016 -69 638 C-66.37886292 638 -64.49064888 637.68707555 -62 637 C-62.9977758 639.99332739 -63.7522025 640.94766315 -66 643 C-65.01 643.33 -64.02 643.66 -63 644 C-63 644.66 -63 645.32 -63 646 C-63.66 646 -64.32 646 -65 646 C-64.505 647.485 -64.505 647.485 -64 649 C-65.32 649.33 -66.64 649.66 -68 650 C-68.66 649.01 -69.32 648.02 -70 647 C-70.66 647 -71.32 647 -72 647 C-70.92598892 649.91517292 -70.22189824 651.77810176 -68 654 C-68.66 654.66 -69.32 655.32 -70 656 C-69.38125 656.226875 -68.7625 656.45375 -68.125 656.6875 C-65.34340099 658.40554645 -64.90440459 659.90995099 -64 663 C-64 663.99 -64 664.98 -64 666 C-64.66 666 -65.32 666 -66 666 C-65.649375 666.763125 -65.29875 667.52625 -64.9375 668.3125 C-64 671 -64 671 -65 674 C-64.505 675.485 -64.505 675.485 -64 677 C-64.66 677.66 -65.32 678.32 -66 679 C-64.02 681.475 -64.02 681.475 -62 684 C-62.66 684.66 -63.32 685.32 -64 686 C-61.525 687.485 -61.525 687.485 -59 689 C-60 692 -60 692 -62 693 C-61.01 693.66 -60.02 694.32 -59 695 C-59 695.66 -59 696.32 -59 697 C-59.66 697 -60.32 697 -61 697 C-59.68 699.31 -58.36 701.62 -57 704 C-57.66 704.66 -58.32 705.32 -59 706 C-58.505 706.61875 -58.01 707.2375 -57.5 707.875 C-56 710 -56 710 -56 712 C-56.66 712 -57.32 712 -58 712 C-58 712.66 -58 713.32 -58 714 C-57.39671875 713.68804688 -56.7934375 713.37609375 -56.171875 713.0546875 C-55.37265625 712.66539062 -54.5734375 712.27609375 -53.75 711.875 C-52.96109375 711.48054687 -52.1721875 711.08609375 -51.359375 710.6796875 C-49 710 -49 710 -46.765625 710.7578125 C-45 712 -45 712 -44 714 C-44.66 714.66 -45.32 715.32 -46 716 C-44.02 718.475 -44.02 718.475 -42 721 C-42.804375 721.309375 -43.60875 721.61875 -44.4375 721.9375 C-46.89080405 722.76335345 -46.89080405 722.76335345 -48 724 C-45.525 726.97 -45.525 726.97 -43 730 C-43.66 730.66 -44.32 731.32 -45 732 C-43.9275 731.79375 -42.855 731.5875 -41.75 731.375 C-38.12380904 731.0123809 -36.91708924 731.01637931 -34 733 C-35.96382007 734.50559539 -37.78263366 735.89131683 -40 737 C-39.175 737.61875 -38.35 738.2375 -37.5 738.875 C-36.675 739.57625 -35.85 740.2775 -35 741 C-35 741.66 -35 742.32 -35 743 C-35.66 743 -36.32 743 -37 743 C-35.35551769 744.69431511 -33.69046175 746.35233475 -32 748 C-31.48050781 748.52722656 -30.96101563 749.05445313 -30.42578125 749.59765625 C-27.29866735 752.56440534 -25.05415508 754.22169075 -20.75 754.875 C-15.46031454 755.72528785 -12.25026966 758.59115255 -8.26171875 762.02734375 C-5.08562424 763.94821528 -2.94046795 764.58289143 0.6328125 765.37109375 C8.36265845 767.12552427 14.63682188 770.8520989 21.44335938 774.79296875 C27.29202479 778.02941582 31.80491408 779.52490419 38.48364258 779.81396484 C42.25338563 780.09266322 45.07216688 781.28910545 48.5625 782.75 C63.3405638 788.57939086 76.51669527 791.46880389 92.453125 791.82421875 C97.29365023 791.93935102 102.01575079 792.36993561 106.8125 793 C115.50251022 794.06137529 124.25889188 794.51438288 133 795 C133 807.54 133 820.08 133 833 C129.060625 832.855625 125.12125 832.71125 121.0625 832.5625 C119.83926025 832.51939697 118.61602051 832.47629395 117.35571289 832.43188477 C112.70952291 832.25351874 108.10024071 832.06296206 103.484375 831.48828125 C96.64950123 830.64863724 89.7357008 830.68326957 82.85742188 830.5703125 C75.21800708 830.35423005 68.33183177 829.15159821 61 827 C61 826.67 61 826.34 61 826 C62.98 825.67 64.96 825.34 67 825 C56.00622969 821.3921373 45.58596369 818.6423495 34 817.9375 C23.3641408 817.27286928 15.44406083 814.91700373 6 809.875 C1.55450982 807.50470652 -3.22951112 806.73628219 -8.14453125 805.80859375 C-11.03634871 804.989707 -12.16800451 804.32052762 -14 802 C-13.01 801.67 -12.02 801.34 -11 801 C-19.43161899 795.22808795 -19.43161899 795.22808795 -29 792 C-29 792.66 -29 793.32 -29 794 C-28.01 794.33 -27.02 794.66 -26 795 C-29.26941619 796.05649257 -29.93418435 796.02437617 -33.375 794.75 C-45.8206138 788.02014957 -58.02511901 776.97488099 -68 767 C-70.06874034 766.3574765 -70.06874034 766.3574765 -72 766 C-71.505 767.485 -71.505 767.485 -71 769 C-76.49152542 768.38983051 -76.49152542 768.38983051 -78.875 766.5625 C-80 765 -80 765 -80 763 C-79.34 763 -78.68 763 -78 763 C-78.433125 762.51789062 -78.86625 762.03578125 -79.3125 761.5390625 C-79.869375 760.90742187 -80.42625 760.27578125 -81 759.625 C-81.556875 758.99851562 -82.11375 758.37203125 -82.6875 757.7265625 C-84 756 -84 756 -84 754 C-83.34 754 -82.68 754 -82 754 C-82 753.34 -82 752.68 -82 752 C-84.64 751.34 -87.28 750.68 -90 750 C-89.34 749.01 -88.68 748.02 -88 747 C-89.2375 745.576875 -89.2375 745.576875 -90.5 744.125 C-93 741.25 -93 741.25 -93 739 C-92.34 739 -91.68 739 -91 739 C-91.66 738.34 -92.32 737.68 -93 737 C-93.99 737.33 -94.98 737.66 -96 738 C-98.6875 737.0625 -98.6875 737.0625 -101 736 C-101 735.34 -101 734.68 -101 734 C-100.34 733.67 -99.68 733.34 -99 733 C-99.66 732.38125 -100.32 731.7625 -101 731.125 C-103 729 -103 729 -103 727 C-101.35 726.34 -99.7 725.68 -98 725 C-98.33 723.68 -98.66 722.36 -99 721 C-99.5775 721.20625 -100.155 721.4125 -100.75 721.625 C-103.51967567 722.08661261 -104.64561267 721.42944945 -107 720 C-107 719.34 -107 718.68 -107 718 C-106.34 718 -105.68 718 -105 718 C-105 717.34 -105 716.68 -105 716 C-105.99 716 -106.98 716 -108 716 C-108.66 714.35 -109.32 712.7 -110 711 C-109.34 710.67 -108.68 710.34 -108 710 C-108.99 708.02 -109.98 706.04 -111 704 C-110.34 703.34 -109.68 702.68 -109 702 C-111.97 700.515 -111.97 700.515 -115 699 C-114.67 698.34 -114.34 697.68 -114 697 C-113.34 697 -112.68 697 -112 697 C-112.350625 696.278125 -112.70125 695.55625 -113.0625 694.8125 C-114.10409017 691.6877295 -113.89096572 690.11838004 -113 687 C-113.556875 687.226875 -114.11375 687.45375 -114.6875 687.6875 C-117.92123084 688.12449065 -119.39073978 686.81198627 -122 685 C-119.68143083 683.45428722 -117.49361571 682.20381448 -115 681 C-115.99 680.34 -116.98 679.68 -118 679 C-118 678.34 -118 677.68 -118 677 C-117.34 677 -116.68 677 -116 677 C-116.33 676.34 -116.66 675.68 -117 675 C-117.99 675 -118.98 675 -120 675 C-120.93423645 671.98968256 -121.04449911 671.13349732 -120 668 C-121.32 667.34 -122.64 666.68 -124 666 C-124 665.34 -124 664.68 -124 664 C-123.34 664 -122.68 664 -122 664 C-122.33 662.35 -122.66 660.7 -123 659 C-124.32 659.33 -125.64 659.66 -127 660 C-127 659.01 -127 658.02 -127 657 C-124.36 655.68 -121.72 654.36 -119 653 C-119.33 651.68 -119.66 650.36 -120 649 C-119.34 648.34 -118.68 647.68 -118 647 C-119.98 645.515 -119.98 645.515 -122 644 C-121.34 643.67 -120.68 643.34 -120 643 C-120 641.35 -120 639.7 -120 638 C-119.34 638 -118.68 638 -118 638 C-118.33 636.68 -118.66 635.36 -119 634 C-121.76276177 634.52268466 -124.3260876 635.10869587 -127 636 C-129.1875 635.0625 -129.1875 635.0625 -131 634 C-131 633.34 -131 632.68 -131 632 C-129.68 631.67 -128.36 631.34 -127 631 C-127.309375 629.576875 -127.309375 629.576875 -127.625 628.125 C-127.74875 627.09375 -127.8725 626.0625 -128 625 C-127.34 624.34 -126.68 623.68 -126 623 C-126.32326553 619.40320934 -126.32326553 619.40320934 -127 616 C-128.32 615.67 -129.64 615.34 -131 615 C-131 613 -131 613 -129 611 C-129.32198966 607.90073181 -129.32198966 607.90073181 -130 605 C-129.01 604.67 -128.02 604.34 -127 604 C-127 603.01 -127 602.02 -127 601 C-127.99 600.67 -128.98 600.34 -130 600 C-126.91190305 598.23537317 -125.76687864 598 -122 598 C-122 596.35 -122 594.7 -122 593 C-121.01 592.67 -120.02 592.34 -119 592 C-119 591.01 -119 590.02 -119 589 C-119.598125 589.33 -120.19625 589.66 -120.8125 590 C-123 591 -123 591 -126 591 C-126 589.35 -126 587.7 -126 586 C-125.34 585.67 -124.68 585.34 -124 585 C-124.061875 584.236875 -124.12375 583.47375 -124.1875 582.6875 C-123.96205578 579.45613285 -123.18131991 579.18131991 -121 577 C-121.22757731 574.83700789 -121.22757731 574.83700789 -122 573 C-120.68 572.67 -119.36 572.34 -118 572 C-118 571.01 -118 570.02 -118 569 C-118.55429688 569.28875 -119.10859375 569.5775 -119.6796875 569.875 C-120.40414063 570.24625 -121.12859375 570.6175 -121.875 571 C-122.59429688 571.37125 -123.31359375 571.7425 -124.0546875 572.125 C-126 573 -126 573 -128 573 C-128.66 571.68 -129.32 570.36 -130 569 C-128.68 568.34 -127.36 567.68 -126 567 C-126 566.34 -126 565.68 -126 565 C-126.66 564.34 -127.32 563.68 -128 563 C-124.25 560 -124.25 560 -122 560 C-122 559.34 -122 558.68 -122 558 C-122.99 557.67 -123.98 557.34 -125 557 C-125 556.34 -125 555.68 -125 555 C-124.34 554.67 -123.68 554.34 -123 554 C-122.835 553.01 -122.67 552.02 -122.5 551 C-122.335 550.01 -122.17 549.02 -122 548 C-121.34 547.67 -120.68 547.34 -120 547 C-119.505 546.154375 -119.01 545.30875 -118.5 544.4375 C-118.005 543.633125 -117.51 542.82875 -117 542 C-116.34 542 -115.68 542 -115 542 C-115 541.01 -115 540.02 -115 539 C-115.99 538.67 -116.98 538.34 -118 538 C-115.525 535.525 -115.525 535.525 -113 533 C-115.97 531.515 -115.97 531.515 -119 530 C-117.625 528.5 -117.625 528.5 -116 527 C-115.34 527 -114.68 527 -114 527 C-114 525.68 -114 524.36 -114 523 C-113.01 522.34 -112.02 521.68 -111 521 C-110.31731862 519.67479497 -109.6492959 518.34187818 -109 517 C-108.34 516.67 -107.68 516.34 -107 516 C-106.67 515.01 -106.34 514.02 -106 513 C-106.99 512.67 -107.98 512.34 -109 512 C-108.195625 511.236875 -107.39125 510.47375 -106.5625 509.6875 C-103.83200976 507.20569102 -103.83200976 507.20569102 -103 504 C-101.4375 502.3125 -101.4375 502.3125 -100 501 C-100.78375 501.350625 -101.5675 501.70125 -102.375 502.0625 C-103.674375 502.5265625 -103.674375 502.5265625 -105 503 C-105.66 502.67 -106.32 502.34 -107 502 C-106.6875 499.625 -106.6875 499.625 -106 497 C-105.01 496.34 -104.02 495.68 -103 495 C-101.94228261 493.36935236 -100.94726954 491.69719127 -100 490 C-99.4225 489.13375 -98.845 488.2675 -98.25 487.375 C-97.63125 486.199375 -97.63125 486.199375 -97 485 C-97.495 483.515 -97.495 483.515 -98 482 C-97.360625 481.401875 -96.72125 480.80375 -96.0625 480.1875 C-93.79689611 478.09189663 -93.79689611 478.09189663 -93 475 C-92.01 474.34 -91.02 473.68 -90 473 C-90 472.34 -90 471.68 -90 471 C-94.21912747 471.4794463 -96.79663178 472.16625119 -100 475 C-100.33 473.02 -100.66 471.04 -101 469 C-100.360625 468.5875 -99.72125 468.175 -99.0625 467.75 C-96.8468705 466.22556288 -96.8468705 466.22556288 -96.5625 464.0625 C-96 462 -96 462 -93.5625 460.0625 C-90.69891764 457.75766541 -90.23451255 456.37433431 -89 453 C-87.71332828 451.29705213 -86.38903267 449.62053812 -85 448 C-85.78375 448.474375 -86.5675 448.94875 -87.375 449.4375 C-88.88948678 450.33898023 -90.4235897 451.21179485 -92 452 C-89.21252059 442.74794069 -89.21252059 442.74794069 -86 439 C-85.525625 438.175 -85.05125 437.35 -84.5625 436.5 C-83 434 -83 434 -80.875 432 C-78.79898846 430.13804407 -78.79898846 430.13804407 -78.5 427.5 C-78 425 -78 425 -75.9375 423 C-75.298125 422.34 -74.65875 421.68 -74 421 C-74.020625 420.2575 -74.04125 419.515 -74.0625 418.75 C-73.91986527 412.47407183 -68.17563794 406.38977322 -64 402 C-61.875 401.375 -61.875 401.375 -60 401 C-57.61579539 398.44549506 -57 397.5595477 -57 394 C-55.7391298 392.05522029 -54.39413245 390.16408216 -53 388.3125 C-52.2575 387.31863281 -51.515 386.32476562 -50.75 385.30078125 C-50.1725 384.54152344 -49.595 383.78226562 -49 383 C-49.66 383 -50.32 383 -51 383 C-52.81240747 385.01608167 -52.81240747 385.01608167 -54.625 387.5 C-55.57246094 388.75296875 -55.57246094 388.75296875 -56.5390625 390.03125 C-57.02117187 390.6809375 -57.50328125 391.330625 -58 392 C-58.33 391.34 -58.66 390.68 -59 390 C-57.63713735 386.7721674 -56.13648097 384.16956726 -53.9375 381.4375 C-51.59835298 378.49470214 -50.33871608 375.75003309 -49.625 372.0625 C-49 370 -49 370 -47 367.0625 C-44.90143632 364.28108863 -44.90143632 364.28108863 -44.58984375 361.75390625 C-43.82056506 358.16224083 -42.23566949 355.11229331 -40.5625 351.875 C-40.24990234 351.25496094 -39.93730469 350.63492187 -39.61523438 349.99609375 C-38.20018375 347.2138589 -36.7336571 344.60048565 -35 342 C-34.63557767 340.33985384 -34.30027117 338.67293936 -34 337 C-33.67 336.34 -33.34 335.68 -33 335 C-33.99 334.67 -34.98 334.34 -36 334 C-35.566875 333.14277344 -35.13375 332.28554688 -34.6875 331.40234375 C-34.130625 330.25894531 -33.57375 329.11554688 -33 327.9375 C-32.443125 326.81214844 -31.88625 325.68679688 -31.3125 324.52734375 C-29.79802108 321.10003266 -29.79802108 321.10003266 -30.03125 317.625 C-29.99006839 312.84793336 -28.41568735 309.3783439 -26.5 305.0625 C-26.16613281 304.28326172 -25.83226562 303.50402344 -25.48828125 302.70117188 C-24.67007611 300.79592277 -23.83658323 298.89725125 -23 297 C-26.27922793 300.0115591 -27.55263792 303.41675203 -29.125 307.5 C-45.61102289 348.61813245 -45.61102289 348.61813245 -59 363 C-59.66 363 -60.32 363 -61 363 C-59.29899841 358.38417529 -56.89567277 354.52222878 -54.2421875 350.40234375 C-52.69379664 347.85856318 -52.69379664 347.85856318 -53 344 C-52.11675184 342.00755647 -51.05881065 340.18108661 -49.97265625 338.29296875 C-48.83560279 335.90134061 -48.83560279 335.90134061 -48.58203125 332.69921875 C-47.91950001 328.48836584 -46.56033294 325.37570723 -44.625 321.625 C-44.32078125 320.99722656 -44.0165625 320.36945313 -43.703125 319.72265625 C-41.38037744 315.12679248 -41.38037744 315.12679248 -38 314 C-36.52698031 311.21956473 -36.52698031 311.21956473 -35.3125 307.9375 C-34.87550781 306.83277344 -34.43851563 305.72804688 -33.98828125 304.58984375 C-33.66214844 303.73519531 -33.33601563 302.88054687 -33 302 C-33.66 301.67 -34.32 301.34 -35 301 C-34.566875 299.78183594 -34.13375 298.56367188 -33.6875 297.30859375 C-33.12443562 295.68509146 -32.56196711 294.06138243 -32 292.4375 C-31.71382812 291.63763672 -31.42765625 290.83777344 -31.1328125 290.01367188 C-29.45132805 285.10934224 -28.9029751 281.22721671 -29 276 C-28.40524103 273.54396408 -27.73526445 271.10519247 -27 268.6875 C-25.52961402 263.58509237 -24.77897586 259.131845 -25.05859375 253.828125 C-24.92051874 247.16370467 -23.27201553 240.52665111 -22 234 C-22.66 234 -23.32 234 -24 234 C-24.18175781 235.49853516 -24.18175781 235.49853516 -24.3671875 237.02734375 C-24.53476563 238.31769531 -24.70234375 239.60804688 -24.875 240.9375 C-25.03742188 242.22527344 -25.19984375 243.51304687 -25.3671875 244.83984375 C-25.57601563 245.88269531 -25.78484375 246.92554688 -26 248 C-26.66 248.33 -27.32 248.66 -28 249 C-30.41573681 244.77246059 -30.06936753 241.15625632 -29.5625 236.4453125 C-29.47226563 235.58292969 -29.38203125 234.72054687 -29.2890625 233.83203125 C-29.09717898 232.03506798 -28.90447772 230.23819184 -28.7109375 228.44140625 C-27.76509224 220.54555818 -27.76509224 220.54555818 -28.50270081 212.68666077 C-29.03108248 209.83207676 -29.10630639 207.23546762 -29.08178711 204.33374023 C-29.0752562 203.21744736 -29.06872528 202.10115448 -29.06199646 200.95103455 C-29.05056107 199.74902908 -29.03912567 198.54702362 -29.02734375 197.30859375 C-29.01467749 194.72721498 -29.00231806 192.14583469 -28.99023438 189.56445312 C-28.96673676 185.52346593 -28.93787722 181.48256584 -28.90405273 177.44165039 C-28.79207014 163.15637446 -28.80230162 149.08293719 -30.56469727 134.89086914 C-30.9389425 131.54575059 -31.08467476 128.36009355 -31 125 C-30.01 125 -29.02 125 -28 125 C-27.505 123.515 -27.505 123.515 -27 122 C-26.67 123.65 -26.34 125.3 -26 127 C-24.77951372 124.18220877 -24.77951372 124.18220877 -25.4375 121.9375 C-26.10827606 118.43455836 -26.02765751 115.15324308 -25.9375 111.59765625 C-25.9363504 108.94668271 -25.9363504 108.94668271 -26.5 106.1640625 C-27.0797018 102.49563708 -27.05909176 99.02420095 -27 95.3125 C-26.868107 90.05924205 -26.868107 90.05924205 -28 85 C-29.485 84.505 -29.485 84.505 -31 84 C-32.17755913 81.05610218 -32.03348696 80.10046087 -31 77 C-31.165 76.34 -31.33 75.68 -31.5 75 C-32 73 -32 73 -31 70 C-31.2784375 68.9790625 -31.2784375 68.9790625 -31.5625 67.9375 C-31.7790625 66.9784375 -31.7790625 66.9784375 -32 66 C-31.34 65.34 -30.68 64.68 -30 64 C-28.51993998 67.93716478 -27.04110503 71.87478859 -25.5625 75.8125 C-25.14162109 76.93205078 -24.72074219 78.05160156 -24.28710938 79.20507812 C-23.88427734 80.27822266 -23.48144531 81.35136719 -23.06640625 82.45703125 C-22.69459229 83.44678955 -22.32277832 84.43654785 -21.93969727 85.45629883 C-21.26127575 87.29274305 -20.61909475 89.14271574 -20 91 C-19.34 91.33 -18.68 91.66 -18 92 C-18.99 88.7 -19.98 85.4 -21 82 C-20.34 82 -19.68 82 -19 82 C-19.556875 80.1128125 -19.556875 80.1128125 -20.125 78.1875 C-20.7578125 76.04296875 -20.7578125 76.04296875 -21 74 C-20.01 72.515 -20.01 72.515 -19 71 C-18.79530967 68.09227533 -18.79530967 68.09227533 -18.9375 64.9375 C-19.09758898 59.19517796 -19.09758898 59.19517796 -18 57 C-18.60760482 54.6505947 -19.27129528 52.31470912 -20 50 C-19.34 49.67 -18.68 49.34 -18 49 C-17.71125 49.639375 -17.4225 50.27875 -17.125 50.9375 C-16.17176549 53.15206079 -16.17176549 53.15206079 -14 54 C-14.185625 53.071875 -14.37125 52.14375 -14.5625 51.1875 C-15 48 -15 48 -14 45 C-15.485 45.495 -15.485 45.495 -17 46 C-17.99 43.69 -18.98 41.38 -20 39 C-19.484375 38.401875 -18.96875 37.80375 -18.4375 37.1875 C-17.963125 36.465625 -17.48875 35.74375 -17 35 C-17.33 34.01 -17.66 33.02 -18 32 C-17.835 31.236875 -17.67 30.47375 -17.5 29.6875 C-16.91397109 26.53759463 -17.34806642 24.11479378 -18 21 C-16.35 20.67 -14.7 20.34 -13 20 C-13 20.66 -13 21.32 -13 22 C-12.01 22 -11.02 22 -10 22 C-10.99 17.05 -10.99 17.05 -12 12 C-11.34 12 -10.68 12 -10 12 C-10.495 11.1028125 -10.495 11.1028125 -11 10.1875 C-12 8 -12 8 -12 5 C-10.68 4.67 -9.36 4.34 -8 4 C-7.01 5.485 -7.01 5.485 -6 7 C-4.03247172 8.06246527 -2.03412421 9.07137808 0 10 C-0.185625 9.38125 -0.37125 8.7625 -0.5625 8.125 C-1 6 -1 6 0 4 C0 2.68 0 1.36 0 0 Z M-127 613 C-127 613.99 -127 614.98 -127 616 C-126.01 616 -125.02 616 -124 616 C-124 615.34 -124 614.68 -124 614 C-124.99 613.67 -125.98 613.34 -127 613 Z " fill="#2A3F70" transform="translate(1217,0)"/>
<path d="M0 0 C113.19 0 226.38 0 343 0 C340.36 8.25 337.72 16.5 335 25 C333.515 31.0328125 333.515 31.0328125 332 37.1875 C329.27126144 47.99807625 325.24951486 55.98682244 318.81640625 65.08984375 C317.12244538 67.80382406 316.47289557 69.39673487 316.0625 72.5 C315.18859754 77.23831518 313.33357773 79.57869654 310 83 C309.34 82.34 308.68 81.68 308 81 C307.81566406 81.53367187 307.63132812 82.06734375 307.44140625 82.6171875 C305.50062508 87.60283868 303.19763616 91.11352245 299.5 95 C295.89554066 98.7923139 293.88321078 101.99528893 292.02734375 106.8359375 C290.47840774 110.09871525 288.16727005 112.48934881 285.68359375 115.078125 C283.9016562 116.96607665 283.9016562 116.96607665 282.71484375 119.40234375 C280.40115327 122.90713685 277.52748085 124.91253583 274.125 127.3125 C273.45082031 127.79468994 272.77664063 128.27687988 272.08203125 128.77368164 C265.89598218 133.15328206 259.60277381 137.27273098 253 141 C251.80987305 141.67482422 251.80987305 141.67482422 250.59570312 142.36328125 C197.95704131 171.85338151 137.25335145 178.41245363 79.09130859 162.87988281 C49.49455906 154.45572507 24.99677855 139.64478486 0 122 C0 81.74 0 41.48 0 0 Z " fill="#1C2B66" transform="translate(0,0)"/>
<path d="M0 0 C9.57 0 19.14 0 29 0 C31 5 31 5 31 9 C30.34 9 29.68 9 29 9 C29.350625 9.515625 29.70125 10.03125 30.0625 10.5625 C31.38015596 13.9884055 30.79870221 16.47239857 30 20 C29.34 20.33 28.68 20.66 28 21 C26.35 18.03 24.7 15.06 23 12 C22.01 12.33 21.02 12.66 20 13 C20.165 13.763125 20.33 14.52625 20.5 15.3125 C21 18 21 18 21 21 C21.33 21.99 21.66 22.98 22 24 C21.01 24.66 20.02 25.32 19 26 C18.49415526 28.16463326 18.49415526 28.16463326 18.4375 30.5625 C18.30859375 33.00390625 18.30859375 33.00390625 18 35 C17.01 35.495 17.01 35.495 16 36 C15.01 35.01 14.02 34.02 13 33 C13.226875 33.5775 13.45375 34.155 13.6875 34.75 C14.11445514 37.82407699 12.80615783 38.59178956 11 41 C11.21717352 43.20800528 11.21717352 43.20800528 12 45 C11.34 45 10.68 45 10 45 C10.49113281 45.82757813 10.49113281 45.82757813 10.9921875 46.671875 C12.16787715 49.38780923 12.20248638 51.30551759 12.125 54.25 C12.10695313 55.14203125 12.08890625 56.0340625 12.0703125 56.953125 C12.04710937 57.62859375 12.02390625 58.3040625 12 59 C11.01 58.67 10.02 58.34 9 58 C8.67 57.34 8.34 56.68 8 56 C7.814375 57.11375 7.814375 57.11375 7.625 58.25 C7 61 7 61 5.875 62.9375 C4.63418144 65.86228662 5.36220591 67.93858838 6 71 C6 72.32 6 73.64 6 75 C6.01160156 75.7321875 6.02320313 76.464375 6.03515625 77.21875 C6.04417969 77.9715625 6.05320312 78.724375 6.0625 79.5 C6.07990234 80.62921875 6.07990234 80.62921875 6.09765625 81.78125 C6 84 6 84 5.46484375 86.0546875 C4.73873945 89.09334245 5.54668725 91.94013895 6 95 C5.67 95.66 5.34 96.32 5 97 C5.21090786 99.06603621 5.57692156 101.08087967 5.94140625 103.125 C5.96074219 103.74375 5.98007813 104.3625 6 105 C5.34 105.66 4.68 106.32 4 107 C3.16247839 104.04283593 2.33069969 101.084087 1.5 98.125 C1.26152344 97.28324219 1.02304688 96.44148438 0.77734375 95.57421875 C0.55175781 94.76855469 0.32617188 93.96289062 0.09375 93.1328125 C-0.11572266 92.38918457 -0.32519531 91.64555664 -0.54101562 90.87939453 C-1 89 -1 89 -1 87 C-1.66 87 -2.32 87 -3 87 C-2.83242187 87.60328125 -2.66484375 88.2065625 -2.4921875 88.828125 C-2.18667969 90.02695313 -2.18667969 90.02695313 -1.875 91.25 C-1.56175781 92.43335937 -1.56175781 92.43335937 -1.2421875 93.640625 C-1 96 -1 96 -1.96826172 97.78198242 C-3.27893303 100.59964662 -3.25883637 102.74452559 -3.265625 105.84765625 C-3.26949219 107.00112549 -3.27335937 108.15459473 -3.27734375 109.34301758 C-3.26832031 110.57044678 -3.25929688 111.79787598 -3.25 113.0625 C-3.24613281 114.32151123 -3.24226563 115.58052246 -3.23828125 116.87768555 C-3.16486749 124.86602046 -2.70107668 132.6847282 -1.71411133 140.60742188 C-0.9927449 146.48168244 -0.90178225 152.22298721 -0.9921875 158.14453125 C-1.00140369 162.69272001 -0.80953506 167.20954091 -0.5625 171.75 C-0.50340454 172.91317749 -0.50340454 172.91317749 -0.44311523 174.09985352 C-0.26040787 177.26783722 -0.00836968 179.97489097 1 183 C0.67 183.33 0.34 183.66 0 184 C0.4376971 186.2887911 1.03747623 188.51881503 1.625 190.7734375 C2 193 2 193 1 196 C1.33 196.66 1.66 197.32 2 198 C2.07250298 199.64436757 2.08375172 201.29167202 2.0625 202.9375 C2.05476563 203.91460937 2.04703125 204.89171875 2.0390625 205.8984375 C2.01302083 207.96614583 1.98697917 210.03385417 1.9609375 212.1015625 C1.95320313 213.07867187 1.94546875 214.05578125 1.9375 215.0625 C1.92009766 216.41021484 1.92009766 216.41021484 1.90234375 217.78515625 C1.85117096 220.04182607 1.85117096 220.04182607 3 222 C2.64383559 225.34275141 2.17700525 228.64826907 1.671875 231.97070312 C1.10613668 235.99414473 1.20646534 239.06308387 2 243 C1.76029321 245.76351616 1.46153196 248.44880237 1.0625 251.1875 C0.30605308 256.07621563 0.30605308 256.07621563 0 261 C-0.66 261 -1.32 261 -2 261 C-2 261.66 -2 262.32 -2 263 C-0.68 263.66 0.64 264.32 2 265 C0.89644911 272.55607786 -0.59343789 279.74822618 -3 287 C-2.34 287.33 -1.68 287.66 -1 288 C-1.66 288.66 -2.32 289.32 -3 290 C-2.67 290.66 -2.34 291.32 -2 292 C-2.52905273 293.97119141 -2.52905273 293.97119141 -3.43359375 296.3515625 C-3.75263672 297.20234375 -4.07167969 298.053125 -4.40039062 298.9296875 C-4.74263672 299.81914062 -5.08488281 300.70859375 -5.4375 301.625 C-5.77587891 302.5221875 -6.11425781 303.419375 -6.46289062 304.34375 C-7.30182988 306.56516661 -8.1477775 308.78365271 -9 311 C-6.01961015 308.49851586 -5.09060259 306.01987796 -3.87890625 302.36328125 C-3.50233887 301.23567383 -3.12577148 300.10806641 -2.73779297 298.94628906 C-2.15602295 297.14756348 -2.15602295 297.14756348 -1.5625 295.3125 C-1.16434082 294.09401367 -0.76618164 292.87552734 -0.35595703 291.62011719 C5.22869969 276.87845598 5.22869969 276.87845598 6.49609375 261.57421875 C5.91172087 257.36397319 6.49372912 254.15485117 7.4375 250.0625 C7.58509766 249.37865234 7.73269531 248.69480469 7.88476562 247.99023438 C8.24587294 246.32448128 8.62142712 244.66187077 9 243 C9.99 243 10.98 243 12 243 C11.76603516 244.77117187 11.76603516 244.77117187 11.52734375 246.578125 C11.33034314 248.13536788 11.13374987 249.69266233 10.9375 251.25 C10.83373047 252.02730469 10.72996094 252.80460938 10.62304688 253.60546875 C10.52958984 254.35957031 10.43613281 255.11367187 10.33984375 255.890625 C10.25081787 256.58188477 10.16179199 257.27314453 10.07006836 257.98535156 C9.9027141 260.02287605 9.9027141 260.02287605 10.52954102 262.02026367 C11.34542356 265.45357531 9.94383493 268.74414364 9 272.0625 C7.26951292 277.48823869 7.26951292 277.48823869 8 283 C7.63867188 284.92944336 7.63867188 284.92944336 6.96875 287.08984375 C6.73542969 287.87423828 6.50210937 288.65863281 6.26171875 289.46679688 C5.7550059 291.11036547 5.24719796 292.75359685 4.73828125 294.39648438 C4.50496094 295.18216797 4.27164062 295.96785156 4.03125 296.77734375 C3.69963867 297.84843384 3.69963867 297.84843384 3.36132812 298.94116211 C2.94926595 301.28908127 3.40596166 302.71889279 4 305 C3.07421875 308.34765625 3.07421875 308.34765625 1.6875 312.0625 C1.23761719 313.29097656 0.78773438 314.51945312 0.32421875 315.78515625 C-1 319 -1 319 -3 322 C-2.34 322.33 -1.68 322.66 -1 323 C-1.66 323.66 -2.32 324.32 -3 325 C-3 325.99 -3 326.98 -3 328 C-3.61083984 329.85351563 -3.61083984 329.85351563 -4.4609375 331.90625 C-4.76773437 332.65003906 -5.07453125 333.39382813 -5.390625 334.16015625 C-5.87789062 335.31837891 -5.87789062 335.31837891 -6.375 336.5 C-6.85066406 337.65822266 -6.85066406 337.65822266 -7.3359375 338.83984375 C-8.71108286 342.1459224 -10.00226359 345.00339539 -12 348 C-11.34 348.33 -10.68 348.66 -10 349 C-10 357.4455007 -15.93820042 365.8783114 -20 373 C-16.25876024 368.7045025 -13.65848126 364.00099548 -11 359 C-10.34 359.66 -9.68 360.32 -9 361 C-11.22199048 366.75103419 -14.21861452 371.80456888 -17.4765625 377.03515625 C-19.15333741 379.88049815 -19.15333741 379.88049815 -19.359375 382.890625 C-20.28147661 387.36619133 -22.81235153 390.16820841 -25.625 393.6875 C-26.6681628 394.9965421 -27.70252086 396.31266491 -28.7265625 397.63671875 C-29.18627441 398.21123779 -29.64598633 398.78575684 -30.11962891 399.37768555 C-30.41015137 399.91304932 -30.70067383 400.44841309 -31 401 C-30.505 402.485 -30.505 402.485 -30 404 C-31.82044909 406.65233464 -33.7715327 409.07204686 -35.83984375 411.52929688 C-37.27410291 413.26272936 -37.27410291 413.26272936 -39 416 C-38.7430638 418.20554106 -38.7430638 418.20554106 -38 420 C-38.66 420.66 -39.32 421.32 -40 422 C-40.29648438 422.76699219 -40.59296875 423.53398437 -40.8984375 424.32421875 C-42.10970057 427.26647125 -43.63284635 429.3407538 -45.625 431.8125 C-46.25664063 432.60269531 -46.88828125 433.39289063 -47.5390625 434.20703125 C-48.02117187 434.79871094 -48.50328125 435.39039063 -49 436 C-47.85073734 435.04578192 -46.70569459 434.08647955 -45.5625 433.125 C-44.92441406 432.59132813 -44.28632812 432.05765625 -43.62890625 431.5078125 C-41.89194996 430.0777243 -41.89194996 430.0777243 -41 428 C-40.01 428.33 -39.02 428.66 -38 429 C-43.43844857 436.4688027 -43.43844857 436.4688027 -46.3125 439.1875 C-48.19949307 440.88867006 -48.19949307 440.88867006 -48.4375 443.375 C-49.04112598 446.19192126 -49.70078203 447.02406688 -51.5625 449.125 C-54.32334263 451.75317489 -54.32334263 451.75317489 -54 455 C-54 458 -54 458 -55.2421875 459.4296875 C-55.78101563 459.90664063 -56.31984375 460.38359375 -56.875 460.875 C-59.59326009 463.44752586 -60.6800638 465.48017014 -62 469 C-62.86941382 470.06381691 -63.76757998 471.10454228 -64.6875 472.125 C-65.450625 473.07375 -66.21375 474.0225 -67 475 C-66.505 476.485 -66.505 476.485 -66 478 C-65.18595703 477.27683594 -65.18595703 477.27683594 -64.35546875 476.5390625 C-63.64003906 475.90742188 -62.92460938 475.27578125 -62.1875 474.625 C-61.47980469 473.99851562 -60.77210937 473.37203125 -60.04296875 472.7265625 C-58 471 -58 471 -55 469 C-55 475.38276023 -58.55197118 478.71952282 -62.58203125 483.296875 C-64.3233418 485.38836646 -65.63096443 487.65308188 -67 490 C-68 491 -69 492 -70 493 C-70.433125 493.78375 -70.86625 494.5675 -71.3125 495.375 C-73 498 -73 498 -76 500.3125 C-79.21868016 502.80797054 -80.17702249 505.37131131 -81.26171875 509.23046875 C-82 511 -82 511 -85 513 C-86.0209375 513.185625 -86.0209375 513.185625 -87.0625 513.375 C-89.18499732 513.82121178 -89.18499732 513.82121178 -90.125 515.9375 C-90.41375 516.618125 -90.7025 517.29875 -91 518 C-91.66 518.66 -92.32 519.32 -93 520 C-88.53939095 518.60605967 -85.36767444 516.11795013 -81.76953125 513.2421875 C-80 512 -80 512 -78 512 C-79.15173355 514.46800047 -80.04783565 516.04783565 -82 518 C-82.309375 519.175625 -82.61875 520.35125 -82.9375 521.5625 C-83.4634375 523.2640625 -83.4634375 523.2640625 -84 525 C-84.99 525.33 -85.98 525.66 -87 526 C-87.12375 526.804375 -87.2475 527.60875 -87.375 528.4375 C-87.58125 529.283125 -87.7875 530.12875 -88 531 C-88.66 531.33 -89.32 531.66 -90 532 C-89.9175 532.928125 -89.835 533.85625 -89.75 534.8125 C-90 538 -90 538 -92 539.875 C-92.66 540.24625 -93.32 540.6175 -94 541 C-92.02 540.34 -90.04 539.68 -88 539 C-88.66282553 541.7826166 -89.43239854 544.48638937 -90.375 547.1875 C-90.72691406 548.22970703 -90.72691406 548.22970703 -91.0859375 549.29296875 C-92 551 -92 551 -95 552 C-94.505 554.97 -94.505 554.97 -94 558 C-94.99 558.66 -95.98 559.32 -97 560 C-97.33 560.99 -97.66 561.98 -98 563 C-95.40654747 562.56775791 -93.23633767 562.11816884 -90.875 560.9375 C-89 560 -89 560 -86 560 C-86 560.66 -86 561.32 -86 562 C-87.65 562.66 -89.3 563.32 -91 564 C-91 564.66 -91 565.32 -91 566 C-89.68 566.66 -88.36 567.32 -87 568 C-89.31 569.32 -91.62 570.64 -94 572 C-94 571.34 -94 570.68 -94 570 C-94.66 570.33 -95.32 570.66 -96 571 C-96.73075648 573.3140622 -97.40138258 575.64828869 -98 578 C-98.66 578 -99.32 578 -100 578 C-99.6596875 579.3921875 -99.6596875 579.3921875 -99.3125 580.8125 C-99 584 -99 584 -100.4375 585.875 C-100.953125 586.24625 -101.46875 586.6175 -102 587 C-100.02 586.34 -98.04 585.68 -96 585 C-95.67 586.65 -95.34 588.3 -95 590 C-95.99 590.33 -96.98 590.66 -98 591 C-97.505 592.485 -97.505 592.485 -97 594 C-97.99 594.556875 -98.98 595.11375 -100 595.6875 C-100.99 596.450625 -101.98 597.21375 -103 598 C-103.33374277 600.58416247 -103.33374277 600.58416247 -103 603 C-103.66 603.66 -104.32 604.32 -105 605 C-104.278125 604.649375 -103.55625 604.29875 -102.8125 603.9375 C-99.6877295 602.89590983 -98.11838004 603.10903428 -95 604 C-95 607 -95 607 -96.5 608.6875 C-96.995 609.120625 -97.49 609.55375 -98 610 C-97.34 610.66 -96.68 611.32 -96 612 C-96 613.32 -96 614.64 -96 616 C-96.66 616.66 -97.32 617.32 -98 618 C-97.6814823 620.10820797 -97.6814823 620.10820797 -97 622 C-97.66 622.33 -98.32 622.66 -99 623 C-99 624.65 -99 626.3 -99 628 C-99.99 628.33 -100.98 628.66 -102 629 C-102 629.66 -102 630.32 -102 631 C-99.36 630.67 -96.72 630.34 -94 630 C-94.14204741 631.58367747 -94.28880153 633.16693318 -94.4375 634.75 C-94.51871094 635.63171875 -94.59992188 636.5134375 -94.68359375 637.421875 C-94.96324061 639.70047903 -95.40987722 641.78703958 -96 644 C-96.34578768 645.99788438 -96.68143549 647.99759451 -97 650 C-95.02 651.485 -95.02 651.485 -93 653 C-94.65 653.66 -96.3 654.32 -98 655 C-98 655.99 -98 656.98 -98 658 C-97.34 658 -96.68 658 -96 658 C-96 658.66 -96 659.32 -96 660 C-96.66 660 -97.32 660 -98 660 C-98 660.66 -98 661.32 -98 662 C-97.01 662.33 -96.02 662.66 -95 663 C-95 663.66 -95 664.32 -95 665 C-95.66 665 -96.32 665 -97 665 C-97 665.99 -97 666.98 -97 668 C-93.535 666.515 -93.535 666.515 -90 665 C-89.34 665.99 -88.68 666.98 -88 668 C-85.94996045 669.19232613 -85.94996045 669.19232613 -84 670 C-84.66 670.99 -85.32 671.98 -86 673 C-85.69159401 675.15274948 -85.69159401 675.15274948 -85 677 C-85.66 677 -86.32 677 -87 677 C-86.01 679.31 -85.02 681.62 -84 684 C-84.66 684.66 -85.32 685.32 -86 686 C-85.34 687.32 -84.68 688.64 -84 690 C-84.66 690.66 -85.32 691.32 -86 692 C-84.74458443 694.51083114 -83.49936512 694.87125446 -81 696 C-81.99 696.33 -82.98 696.66 -84 697 C-84 697.66 -84 698.32 -84 699 C-83.360625 699.268125 -82.72125 699.53625 -82.0625 699.8125 C-80 701 -80 701 -79 704 C-79.66 704 -80.32 704 -81 704 C-80.2575 705.60875 -80.2575 705.60875 -79.5 707.25 C-78.11346089 710.25416808 -78 711.45934895 -78 715 C-76.02 715.33 -74.04 715.66 -72 716 C-73.93254772 718.0245738 -75.63158688 719.42105792 -78 721 C-76.68 721.33 -75.36 721.66 -74 722 C-74 721.01 -74 720.02 -74 719 C-72.35 719.66 -70.7 720.32 -69 721 C-69 722.66666667 -69 724.33333333 -69 726 C-68.505 727.485 -68.505 727.485 -68 729 C-68.66 729.33 -69.32 729.66 -70 730 C-70 730.66 -70 731.32 -70 732 C-69.01 732.33 -68.02 732.66 -67 733 C-67 733.66 -67 734.32 -67 735 C-65.68 735.66 -64.36 736.32 -63 737 C-63 737.66 -63 738.32 -63 739 C-61.70766393 740.37310707 -60.37562854 741.71034824 -59 743 C-60.65 743.66 -62.3 744.32 -64 745 C-61.61042731 748.24299151 -59.7952131 750.50902342 -56 752 C-56.66 752.66 -57.32 753.32 -58 754 C-57.34 754.350625 -56.68 754.70125 -56 755.0625 C-53 757 -53 757 -51.44921875 758.6171875 C-47.14139853 763.06828334 -43.78140407 764.47325213 -37.6875 765.625 C-29.37927752 767.2000512 -23.51193852 771.24428614 -16.91088867 776.40478516 C-11.82222992 780.25437461 -7.89818799 781.67195453 -1.59057617 782.52880859 C2.26217976 783.22957374 5.14492893 784.96362336 8.4375 787 C13.88448057 790.13060643 18.22372798 791.62310229 24.515625 792.3203125 C29.37049291 793.2673383 33.78472048 795.06087027 38.375 796.875 C49.92961275 801.3978288 60.4677758 805.1569047 73.0078125 805.5703125 C79.20844861 805.8213946 85.15288642 806.8161687 91.25 807.9375 C105.09790923 810.44954106 118.96361548 811.24235424 133 812 C133 818.93 133 825.86 133 833 C129.02065279 832.8582037 125.04157139 832.71168734 121.0625 832.5625 C119.38704102 832.50352539 119.38704102 832.50352539 117.67773438 832.44335938 C112.92406927 832.26213461 108.20700994 832.07625495 103.484375 831.48828125 C96.64950123 830.64863724 89.7357008 830.68326957 82.85742188 830.5703125 C75.21800708 830.35423005 68.33183177 829.15159821 61 827 C61 826.67 61 826.34 61 826 C62.98 825.67 64.96 825.34 67 825 C56.00622969 821.3921373 45.58596369 818.6423495 34 817.9375 C23.3641408 817.27286928 15.44406083 814.91700373 6 809.875 C1.55450982 807.50470652 -3.22951112 806.73628219 -8.14453125 805.80859375 C-11.03634871 804.989707 -12.16800451 804.32052762 -14 802 C-13.01 801.67 -12.02 801.34 -11 801 C-19.43161899 795.22808795 -19.43161899 795.22808795 -29 792 C-29 792.66 -29 793.32 -29 794 C-28.01 794.33 -27.02 794.66 -26 795 C-29.26941619 796.05649257 -29.93418435 796.02437617 -33.375 794.75 C-45.8206138 788.02014957 -58.02511901 776.97488099 -68 767 C-70.06874034 766.3574765 -70.06874034 766.3574765 -72 766 C-71.505 767.485 -71.505 767.485 -71 769 C-76.49152542 768.38983051 -76.49152542 768.38983051 -78.875 766.5625 C-80 765 -80 765 -80 763 C-79.34 763 -78.68 763 -78 763 C-78.433125 762.51789062 -78.86625 762.03578125 -79.3125 761.5390625 C-79.869375 760.90742187 -80.42625 760.27578125 -81 759.625 C-81.556875 758.99851562 -82.11375 758.37203125 -82.6875 757.7265625 C-84 756 -84 756 -84 754 C-83.34 754 -82.68 754 -82 754 C-82 753.34 -82 752.68 -82 752 C-84.64 751.34 -87.28 750.68 -90 750 C-89.34 749.01 -88.68 748.02 -88 747 C-89.2375 745.576875 -89.2375 745.576875 -90.5 744.125 C-93 741.25 -93 741.25 -93 739 C-92.34 739 -91.68 739 -91 739 C-91.66 738.34 -92.32 737.68 -93 737 C-93.99 737.33 -94.98 737.66 -96 738 C-98.6875 737.0625 -98.6875 737.0625 -101 736 C-101 735.34 -101 734.68 -101 734 C-100.34 733.67 -99.68 733.34 -99 733 C-99.66 732.38125 -100.32 731.7625 -101 731.125 C-103 729 -103 729 -103 727 C-101.35 726.34 -99.7 725.68 -98 725 C-98.33 723.68 -98.66 722.36 -99 721 C-99.5775 721.20625 -100.155 721.4125 -100.75 721.625 C-103.51967567 722.08661261 -104.64561267 721.42944945 -107 720 C-107 719.34 -107 718.68 -107 718 C-106.34 718 -105.68 718 -105 718 C-105 717.34 -105 716.68 -105 716 C-105.99 716 -106.98 716 -108 716 C-108.66 714.35 -109.32 712.7 -110 711 C-109.34 710.67 -108.68 710.34 -108 710 C-108.99 708.02 -109.98 706.04 -111 704 C-110.34 703.34 -109.68 702.68 -109 702 C-111.97 700.515 -111.97 700.515 -115 699 C-114.67 698.34 -114.34 697.68 -114 697 C-113.34 697 -112.68 697 -112 697 C-112.350625 696.278125 -112.70125 695.55625 -113.0625 694.8125 C-114.10409017 691.6877295 -113.89096572 690.11838004 -113 687 C-113.556875 687.226875 -114.11375 687.45375 -114.6875 687.6875 C-117.92123084 688.12449065 -119.39073978 686.81198627 -122 685 C-119.68143083 683.45428722 -117.49361571 682.20381448 -115 681 C-115.99 680.34 -116.98 679.68 -118 679 C-118 678.34 -118 677.68 -118 677 C-117.34 677 -116.68 677 -116 677 C-116.33 676.34 -116.66 675.68 -117 675 C-117.99 675 -118.98 675 -120 675 C-120.93423645 671.98968256 -121.04449911 671.13349732 -120 668 C-121.32 667.34 -122.64 666.68 -124 666 C-124 665.34 -124 664.68 -124 664 C-123.34 664 -122.68 664 -122 664 C-122.33 662.35 -122.66 660.7 -123 659 C-124.32 659.33 -125.64 659.66 -127 660 C-127 659.01 -127 658.02 -127 657 C-124.36 655.68 -121.72 654.36 -119 653 C-119.33 651.68 -119.66 650.36 -120 649 C-119.34 648.34 -118.68 647.68 -118 647 C-119.98 645.515 -119.98 645.515 -122 644 C-121.34 643.67 -120.68 643.34 -120 643 C-120 641.35 -120 639.7 -120 638 C-119.34 638 -118.68 638 -118 638 C-118.33 636.68 -118.66 635.36 -119 634 C-121.76276177 634.52268466 -124.3260876 635.10869587 -127 636 C-129.1875 635.0625 -129.1875 635.0625 -131 634 C-131 633.34 -131 632.68 -131 632 C-129.68 631.67 -128.36 631.34 -127 631 C-127.309375 629.576875 -127.309375 629.576875 -127.625 628.125 C-127.74875 627.09375 -127.8725 626.0625 -128 625 C-127.34 624.34 -126.68 623.68 -126 623 C-126.32326553 619.40320934 -126.32326553 619.40320934 -127 616 C-128.32 615.67 -129.64 615.34 -131 615 C-131 613 -131 613 -129 611 C-129.32198966 607.90073181 -129.32198966 607.90073181 -130 605 C-129.01 604.67 -128.02 604.34 -127 604 C-127 603.01 -127 602.02 -127 601 C-127.99 600.67 -128.98 600.34 -130 600 C-126.91190305 598.23537317 -125.76687864 598 -122 598 C-122 596.35 -122 594.7 -122 593 C-121.01 592.67 -120.02 592.34 -119 592 C-119 591.01 -119 590.02 -119 589 C-119.598125 589.33 -120.19625 589.66 -120.8125 590 C-123 591 -123 591 -126 591 C-126 589.35 -126 587.7 -126 586 C-125.34 585.67 -124.68 585.34 -124 585 C-124.061875 584.236875 -124.12375 583.47375 -124.1875 582.6875 C-123.96205578 579.45613285 -123.18131991 579.18131991 -121 577 C-121.22757731 574.83700789 -121.22757731 574.83700789 -122 573 C-120.68 572.67 -119.36 572.34 -118 572 C-118 571.01 -118 570.02 -118 569 C-118.55429688 569.28875 -119.10859375 569.5775 -119.6796875 569.875 C-120.40414063 570.24625 -121.12859375 570.6175 -121.875 571 C-122.59429688 571.37125 -123.31359375 571.7425 -124.0546875 572.125 C-126 573 -126 573 -128 573 C-128.66 571.68 -129.32 570.36 -130 569 C-128.68 568.34 -127.36 567.68 -126 567 C-126 566.34 -126 565.68 -126 565 C-126.66 564.34 -127.32 563.68 -128 563 C-124.25 560 -124.25 560 -122 560 C-122 559.34 -122 558.68 -122 558 C-122.99 557.67 -123.98 557.34 -125 557 C-125 556.34 -125 555.68 -125 555 C-124.34 554.67 -123.68 554.34 -123 554 C-122.835 553.01 -122.67 552.02 -122.5 551 C-122.335 550.01 -122.17 549.02 -122 548 C-121.34 547.67 -120.68 547.34 -120 547 C-119.505 546.154375 -119.01 545.30875 -118.5 544.4375 C-118.005 543.633125 -117.51 542.82875 -117 542 C-116.34 542 -115.68 542 -115 542 C-115 541.01 -115 540.02 -115 539 C-115.99 538.67 -116.98 538.34 -118 538 C-115.525 535.525 -115.525 535.525 -113 533 C-115.97 531.515 -115.97 531.515 -119 530 C-117.625 528.5 -117.625 528.5 -116 527 C-115.34 527 -114.68 527 -114 527 C-114 525.68 -114 524.36 -114 523 C-113.01 522.34 -112.02 521.68 -111 521 C-110.31731862 519.67479497 -109.6492959 518.34187818 -109 517 C-108.34 516.67 -107.68 516.34 -107 516 C-106.67 515.01 -106.34 514.02 -106 513 C-106.99 512.67 -107.98 512.34 -109 512 C-108.195625 511.236875 -107.39125 510.47375 -106.5625 509.6875 C-103.83200976 507.20569102 -103.83200976 507.20569102 -103 504 C-101.4375 502.3125 -101.4375 502.3125 -100 501 C-100.78375 501.350625 -101.5675 501.70125 -102.375 502.0625 C-103.674375 502.5265625 -103.674375 502.5265625 -105 503 C-105.66 502.67 -106.32 502.34 -107 502 C-106.6875 499.625 -106.6875 499.625 -106 497 C-105.01 496.34 -104.02 495.68 -103 495 C-101.94228261 493.36935236 -100.94726954 491.69719127 -100 490 C-99.4225 489.13375 -98.845 488.2675 -98.25 487.375 C-97.63125 486.199375 -97.63125 486.199375 -97 485 C-97.495 483.515 -97.495 483.515 -98 482 C-97.360625 481.401875 -96.72125 480.80375 -96.0625 480.1875 C-93.79689611 478.09189663 -93.79689611 478.09189663 -93 475 C-92.01 474.34 -91.02 473.68 -90 473 C-90 472.34 -90 471.68 -90 471 C-94.21912747 471.4794463 -96.79663178 472.16625119 -100 475 C-100.33 473.02 -100.66 471.04 -101 469 C-100.360625 468.5875 -99.72125 468.175 -99.0625 467.75 C-96.8468705 466.22556288 -96.8468705 466.22556288 -96.5625 464.0625 C-96 462 -96 462 -93.5625 460.0625 C-90.69891764 457.75766541 -90.23451255 456.37433431 -89 453 C-87.71332828 451.29705213 -86.38903267 449.62053812 -85 448 C-85.78375 448.474375 -86.5675 448.94875 -87.375 449.4375 C-88.88948678 450.33898023 -90.4235897 451.21179485 -92 452 C-89.21252059 442.74794069 -89.21252059 442.74794069 -86 439 C-85.525625 438.175 -85.05125 437.35 -84.5625 436.5 C-83 434 -83 434 -80.875 432 C-78.79898846 430.13804407 -78.79898846 430.13804407 -78.5 427.5 C-78 425 -78 425 -75.9375 423 C-75.298125 422.34 -74.65875 421.68 -74 421 C-74.020625 420.2575 -74.04125 419.515 -74.0625 418.75 C-73.91986527 412.47407183 -68.17563794 406.38977322 -64 402 C-61.875 401.375 -61.875 401.375 -60 401 C-57.61579539 398.44549506 -57 397.5595477 -57 394 C-55.7391298 392.05522029 -54.39413245 390.16408216 -53 388.3125 C-52.2575 387.31863281 -51.515 386.32476562 -50.75 385.30078125 C-50.1725 384.54152344 -49.595 383.78226562 -49 383 C-49.66 383 -50.32 383 -51 383 C-52.81240747 385.01608167 -52.81240747 385.01608167 -54.625 387.5 C-55.57246094 388.75296875 -55.57246094 388.75296875 -56.5390625 390.03125 C-57.02117187 390.6809375 -57.50328125 391.330625 -58 392 C-58.33 391.34 -58.66 390.68 -59 390 C-57.63713735 386.7721674 -56.13648097 384.16956726 -53.9375 381.4375 C-51.59835298 378.49470214 -50.33871608 375.75003309 -49.625 372.0625 C-49 370 -49 370 -47 367.0625 C-44.90143632 364.28108863 -44.90143632 364.28108863 -44.58984375 361.75390625 C-43.82056506 358.16224083 -42.23566949 355.11229331 -40.5625 351.875 C-40.24990234 351.25496094 -39.93730469 350.63492187 -39.61523438 349.99609375 C-38.20018375 347.2138589 -36.7336571 344.60048565 -35 342 C-34.63557767 340.33985384 -34.30027117 338.67293936 -34 337 C-33.67 336.34 -33.34 335.68 -33 335 C-33.99 334.67 -34.98 334.34 -36 334 C-35.566875 333.14277344 -35.13375 332.28554688 -34.6875 331.40234375 C-34.130625 330.25894531 -33.57375 329.11554688 -33 327.9375 C-32.443125 326.81214844 -31.88625 325.68679688 -31.3125 324.52734375 C-29.79802108 321.10003266 -29.79802108 321.10003266 -30.03125 317.625 C-29.99006839 312.84793336 -28.41568735 309.3783439 -26.5 305.0625 C-26.16613281 304.28326172 -25.83226562 303.50402344 -25.48828125 302.70117188 C-24.67007611 300.79592277 -23.83658323 298.89725125 -23 297 C-26.27922793 300.0115591 -27.55263792 303.41675203 -29.125 307.5 C-45.61102289 348.61813245 -45.61102289 348.61813245 -59 363 C-59.66 363 -60.32 363 -61 363 C-59.29899841 358.38417529 -56.89567277 354.52222878 -54.2421875 350.40234375 C-52.69379664 347.85856318 -52.69379664 347.85856318 -53 344 C-52.11675184 342.00755647 -51.05881065 340.18108661 -49.97265625 338.29296875 C-48.83560279 335.90134061 -48.83560279 335.90134061 -48.58203125 332.69921875 C-47.91950001 328.48836584 -46.56033294 325.37570723 -44.625 321.625 C-44.32078125 320.99722656 -44.0165625 320.36945313 -43.703125 319.72265625 C-41.38037744 315.12679248 -41.38037744 315.12679248 -38 314 C-36.52698031 311.21956473 -36.52698031 311.21956473 -35.3125 307.9375 C-34.87550781 306.83277344 -34.43851563 305.72804688 -33.98828125 304.58984375 C-33.66214844 303.73519531 -33.33601563 302.88054687 -33 302 C-33.66 301.67 -34.32 301.34 -35 301 C-34.566875 299.78183594 -34.13375 298.56367188 -33.6875 297.30859375 C-33.12443562 295.68509146 -32.56196711 294.06138243 -32 292.4375 C-31.71382812 291.63763672 -31.42765625 290.83777344 -31.1328125 290.01367188 C-29.45132805 285.10934224 -28.9029751 281.22721671 -29 276 C-28.40524103 273.54396408 -27.73526445 271.10519247 -27 268.6875 C-25.52961402 263.58509237 -24.77897586 259.131845 -25.05859375 253.828125 C-24.92051874 247.16370467 -23.27201553 240.52665111 -22 234 C-22.66 234 -23.32 234 -24 234 C-24.18175781 235.49853516 -24.18175781 235.49853516 -24.3671875 237.02734375 C-24.53476563 238.31769531 -24.70234375 239.60804688 -24.875 240.9375 C-25.03742188 242.22527344 -25.19984375 243.51304687 -25.3671875 244.83984375 C-25.57601563 245.88269531 -25.78484375 246.92554688 -26 248 C-26.66 248.33 -27.32 248.66 -28 249 C-30.41573681 244.77246059 -30.06936753 241.15625632 -29.5625 236.4453125 C-29.47226563 235.58292969 -29.38203125 234.72054687 -29.2890625 233.83203125 C-29.09717898 232.03506798 -28.90447772 230.23819184 -28.7109375 228.44140625 C-27.76509224 220.54555818 -27.76509224 220.54555818 -28.50270081 212.68666077 C-29.03108248 209.83207676 -29.10630639 207.23546762 -29.08178711 204.33374023 C-29.0752562 203.21744736 -29.06872528 202.10115448 -29.06199646 200.95103455 C-29.05056107 199.74902908 -29.03912567 198.54702362 -29.02734375 197.30859375 C-29.01467749 194.72721498 -29.00231806 192.14583469 -28.99023438 189.56445312 C-28.96673676 185.52346593 -28.93787722 181.48256584 -28.90405273 177.44165039 C-28.79207014 163.15637446 -28.80230162 149.08293719 -30.56469727 134.89086914 C-30.9389425 131.54575059 -31.08467476 128.36009355 -31 125 C-30.01 125 -29.02 125 -28 125 C-27.505 123.515 -27.505 123.515 -27 122 C-26.67 123.65 -26.34 125.3 -26 127 C-24.77951372 124.18220877 -24.77951372 124.18220877 -25.4375 121.9375 C-26.10827606 118.43455836 -26.02765751 115.15324308 -25.9375 111.59765625 C-25.9363504 108.94668271 -25.9363504 108.94668271 -26.5 106.1640625 C-27.0797018 102.49563708 -27.05909176 99.02420095 -27 95.3125 C-26.868107 90.05924205 -26.868107 90.05924205 -28 85 C-29.485 84.505 -29.485 84.505 -31 84 C-32.17755913 81.05610218 -32.03348696 80.10046087 -31 77 C-31.165 76.34 -31.33 75.68 -31.5 75 C-32 73 -32 73 -31 70 C-31.2784375 68.9790625 -31.2784375 68.9790625 -31.5625 67.9375 C-31.7790625 66.9784375 -31.7790625 66.9784375 -32 66 C-31.34 65.34 -30.68 64.68 -30 64 C-28.51993998 67.93716478 -27.04110503 71.87478859 -25.5625 75.8125 C-25.14162109 76.93205078 -24.72074219 78.05160156 -24.28710938 79.20507812 C-23.88427734 80.27822266 -23.48144531 81.35136719 -23.06640625 82.45703125 C-22.69459229 83.44678955 -22.32277832 84.43654785 -21.93969727 85.45629883 C-21.26127575 87.29274305 -20.61909475 89.14271574 -20 91 C-19.34 91.33 -18.68 91.66 -18 92 C-18.99 88.7 -19.98 85.4 -21 82 C-20.34 82 -19.68 82 -19 82 C-19.556875 80.1128125 -19.556875 80.1128125 -20.125 78.1875 C-20.7578125 76.04296875 -20.7578125 76.04296875 -21 74 C-20.01 72.515 -20.01 72.515 -19 71 C-18.79530967 68.09227533 -18.79530967 68.09227533 -18.9375 64.9375 C-19.09758898 59.19517796 -19.09758898 59.19517796 -18 57 C-18.60760482 54.6505947 -19.27129528 52.31470912 -20 50 C-19.34 49.67 -18.68 49.34 -18 49 C-17.71125 49.639375 -17.4225 50.27875 -17.125 50.9375 C-16.17176549 53.15206079 -16.17176549 53.15206079 -14 54 C-14.185625 53.071875 -14.37125 52.14375 -14.5625 51.1875 C-15 48 -15 48 -14 45 C-15.485 45.495 -15.485 45.495 -17 46 C-17.99 43.69 -18.98 41.38 -20 39 C-19.484375 38.401875 -18.96875 37.80375 -18.4375 37.1875 C-17.963125 36.465625 -17.48875 35.74375 -17 35 C-17.33 34.01 -17.66 33.02 -18 32 C-17.835 31.236875 -17.67 30.47375 -17.5 29.6875 C-16.91397109 26.53759463 -17.34806642 24.11479378 -18 21 C-16.35 20.67 -14.7 20.34 -13 20 C-13 20.66 -13 21.32 -13 22 C-12.01 22 -11.02 22 -10 22 C-10.99 17.05 -10.99 17.05 -12 12 C-11.34 12 -10.68 12 -10 12 C-10.495 11.1028125 -10.495 11.1028125 -11 10.1875 C-12 8 -12 8 -12 5 C-10.68 4.67 -9.36 4.34 -8 4 C-7.01 5.485 -7.01 5.485 -6 7 C-4.03247172 8.06246527 -2.03412421 9.07137808 0 10 C-0.185625 9.38125 -0.37125 8.7625 -0.5625 8.125 C-1 6 -1 6 0 4 C0 2.68 0 1.36 0 0 Z M-127 613 C-127 613.99 -127 614.98 -127 616 C-126.01 616 -125.02 616 -124 616 C-124 615.34 -124 614.68 -124 614 C-124.99 613.67 -125.98 613.34 -127 613 Z " fill="#2B457A" transform="translate(1217,0)"/>
<path d="M0 0 C1.29349365 0.00523682 2.5869873 0.01047363 3.91967773 0.01586914 C4.9496714 0.01799156 4.9496714 0.01799156 6.00047302 0.02015686 C8.20144949 0.0257706 10.40232557 0.03832532 12.60327148 0.05102539 C14.09220231 0.05603863 15.58113473 0.06060184 17.07006836 0.06469727 C20.72700223 0.07574446 24.38387707 0.09301826 28.04077148 0.11352539 C27.82984863 0.75040283 27.61892578 1.38728027 27.40161133 2.04345703 C26.39899846 5.08529633 25.40579246 8.13006381 24.41577148 11.17602539 C23.86663086 12.86369019 23.86663086 12.86369019 23.30639648 14.58544922 C20.90030545 22.09975143 18.8784523 29.63115307 17.04077148 37.30102539 C14.4095062 48.04475123 10.24108166 56.16997379 3.85717773 65.20336914 C2.16321687 67.91734946 1.51366705 69.51026026 1.10327148 72.61352539 C0.22936902 77.35184057 -1.62565079 79.69222193 -4.95922852 83.11352539 C-5.61922852 82.45352539 -6.27922852 81.79352539 -6.95922852 81.11352539 C-7.14356445 81.64719727 -7.32790039 82.18086914 -7.51782227 82.73071289 C-9.45860343 87.71636407 -11.76159235 91.22704784 -15.45922852 95.11352539 C-19.06368786 98.90583929 -21.07601774 102.10881432 -22.93188477 106.94946289 C-24.48082077 110.21224064 -26.79195847 112.60287421 -29.27563477 115.19165039 C-31.05757231 117.07960204 -31.05757231 117.07960204 -32.24438477 119.51586914 C-34.55807524 123.02066224 -37.43174767 125.02606122 -40.83422852 127.42602539 C-41.5084082 127.90821533 -42.18258789 128.39040527 -42.87719727 128.88720703 C-49.06324634 133.26680745 -55.3564547 137.38625637 -61.95922852 141.11352539 C-63.14935547 141.78834961 -63.14935547 141.78834961 -64.36352539 142.47680664 C-117.0021872 171.9669069 -177.70587707 178.52597902 -235.86791992 162.9934082 C-256.62809186 157.08441597 -277.38840568 148.22900188 -295.17919922 135.88354492 C-297.51830355 134.39425833 -299.76902085 133.23496943 -302.26074219 132.04272461 C-308.10114021 128.98321023 -313.75666567 125.91112492 -315.84680176 119.31063843 C-317.09352869 111.18086734 -316.50756884 103.03707432 -316.02172852 94.86352539 C-315.93635191 92.36508501 -315.85880319 89.86636416 -315.78930664 87.36743164 C-315.60296342 81.27662601 -315.3195233 75.19638947 -314.95922852 69.11352539 C-312.35044593 71.71246351 -309.76281919 74.32003577 -307.22485352 76.98852539 C-295.3571359 89.37317797 -281.89224856 99.67236604 -266.95922852 108.11352539 C-266.33113281 108.47397949 -265.70303711 108.83443359 -265.0559082 109.20581055 C-248.729432 118.51087117 -231.2513075 124.86835997 -212.95922852 129.11352539 C-211.91001221 129.36126709 -211.91001221 129.36126709 -210.83959961 129.61401367 C-164.95562319 139.83982727 -114.30922337 129.17273527 -74.95678711 104.40014648 C-66.49653875 98.95092761 -58.57382812 93.08025846 -51.20141602 86.20336914 C-49.08627564 84.23194039 -46.91499406 82.35718337 -44.70922852 80.48852539 C-37.60377361 74.23626556 -37.60377361 74.23626556 -33.58422852 65.86352539 C-32.45094579 61.87356551 -30.72055399 59.29628359 -28.14672852 56.05102539 C-24.43126365 51.18038872 -22.29688545 46.30872387 -20.3215332 40.58447266 C-18.37757635 35.01999376 -15.98564258 29.78096829 -13.39672852 24.48852539 C-10.06148746 17.64597343 -7.23588694 10.82736635 -4.83422852 3.60571289 C-3.61699087 0.13875924 -3.61699087 0.13875924 0 0 Z " fill="#1B3975" transform="translate(314.959228515625,-0.113525390625)"/>
<path d="M0 0 C0.66 0 1.32 0 2 0 C0.87731103 6.67704492 -0.8687958 12.87856953 -3.1953125 19.23828125 C-4.00252551 22.00866766 -4.065372 24.13764036 -4 27 C-4.67333537 30.46487158 -5.88263565 33.78112285 -7 37.125 C-7.350625 38.17945313 -7.70125 39.23390625 -8.0625 40.3203125 C-9 43 -9 43 -10 45 C-11.65 44.67 -13.3 44.34 -15 44 C-12.59223314 35.66256237 -9.87293441 27.43260258 -7.12890625 19.20141602 C-6.3665222 16.9120419 -5.6089812 14.62109909 -4.8515625 12.33007812 C-4.36748007 10.87490264 -3.8831157 9.41982091 -3.3984375 7.96484375 C-3.17239838 7.27954086 -2.94635925 6.59423798 -2.71347046 5.88816833 C-1.11443423 1.11443423 -1.11443423 1.11443423 0 0 Z " fill="#2C3D70" transform="translate(1272,290)"/>
<path d="M0 0 C6.98546779 1.84909442 10.48923686 7.89027522 13.9375 13.8125 C15.21484375 16.08203125 15.21484375 16.08203125 16 18 C15.67 18.66 15.34 19.32 15 20 C13.08025364 18.58735645 11.16422694 17.17008929 9.25 15.75 C8.71117187 15.35425781 8.17234375 14.95851563 7.6171875 14.55078125 C4.49794307 12.23036771 1.67031761 9.82587009 -1 7 C1.475 7.495 1.475 7.495 4 8 C3.360625 7.401875 2.72125 6.80375 2.0625 6.1875 C0 4 0 4 -1 1 C-0.67 0.67 -0.34 0.34 0 0 Z " fill="#076694" transform="translate(841,806)"/>
<path d="M0 0 C4.85028975 7.27543462 1.14472916 19.67005122 0 28 C-0.99 27.67 -1.98 27.34 -3 27 C-2.69357747 23.06200216 -2.37882317 19.12471395 -2.0625 15.1875 C-1.97548828 14.06794922 -1.88847656 12.94839844 -1.79882812 11.79492188 C-1.71181641 10.72177734 -1.62480469 9.64863281 -1.53515625 8.54296875 C-1.456604 7.55321045 -1.37805176 6.56345215 -1.29711914 5.54370117 C-1 3 -1 3 0 0 Z " fill="#395083" transform="translate(1194,203)"/>
<path d="M0 0 C1.890625 0.21484375 1.890625 0.21484375 4 1 C5.046875 3.06640625 5.046875 3.06640625 5.75 5.5625 C5.99234375 6.38878906 6.2346875 7.21507812 6.484375 8.06640625 C6.65453125 8.70449219 6.8246875 9.34257813 7 10 C0.25 14 0.25 14 -2 14 C-1 11 -1 11 2 9 C1.484375 8.5875 0.96875 8.175 0.4375 7.75 C-0.036875 7.1725 -0.51125 6.595 -1 6 C-0.6875 3.9375 -0.6875 3.9375 0 2 C0 1.34 0 0.68 0 0 Z " fill="#233768" transform="translate(1138,632)"/>
<path d="M0 0 C2.475 0.99 2.475 0.99 5 2 C1.61227103 6.69159716 -1.78185183 11.0299782 -6 15 C-6.99 14.67 -7.98 14.34 -9 14 C-8.38511719 13.31164062 -8.38511719 13.31164062 -7.7578125 12.609375 C-7.21898437 11.99578125 -6.68015625 11.3821875 -6.125 10.75 C-5.59132813 10.14671875 -5.05765625 9.5434375 -4.5078125 8.921875 C-2.29983757 6.10756499 -1.12818148 3.38454445 0 0 Z " fill="#324C7A" transform="translate(1138,408)"/>
<path d="M0 0 C0.99 0.33 1.98 0.66 3 1 C3.73046875 2.84765625 3.73046875 2.84765625 4.1875 5.0625 C4.34605469 5.79597656 4.50460937 6.52945313 4.66796875 7.28515625 C4.83232422 8.13400391 4.83232422 8.13400391 5 9 C2 11 2 11 -0.1875 10.625 C-0.785625 10.41875 -1.38375 10.2125 -2 10 C-1.85950482 8.52031676 -1.71245174 7.04125484 -1.5625 5.5625 C-1.48128906 4.73878906 -1.40007812 3.91507813 -1.31640625 3.06640625 C-1 1 -1 1 0 0 Z " fill="#24427B" transform="translate(1086,645)"/>
<path d="M0 0 C0.33 0 0.66 0 1 0 C1.33 2.97 1.66 5.94 2 9 C-5.75 13 -5.75 13 -8 13 C-8 12.01 -8 11.02 -8 10 C-7.195625 9.79375 -6.39125 9.5875 -5.5625 9.375 C-4.716875 8.92125 -3.87125 8.4675 -3 8 C-2.10169161 4.94727535 -2.10169161 4.94727535 -2 2 C-1.34 2 -0.68 2 0 2 C0 1.34 0 0.68 0 0 Z " fill="#28457B" transform="translate(1084,591)"/>
<path d="M0 0 C0.66 0 1.32 0 2 0 C1.48517081 5.852795 0.54642808 11.3297637 -1 17 C-1.99 16.67 -2.98 16.34 -4 16 C-3.52546129 13.51986371 -3.04561015 11.04096744 -2.5625 8.5625 C-2.42779297 7.85544922 -2.29308594 7.14839844 -2.15429688 6.41992188 C-1.11328125 1.11328125 -1.11328125 1.11328125 0 0 Z " fill="#2D4071" transform="translate(1261,261)"/>
<path d="M0 0 C1.64164355 3.2832871 2.52087355 5.45446424 3 9 C2.67 9.33 2.34 9.66 2 10 C1.8997926 12.46981769 1.86122962 14.90551224 1.875 17.375 C1.87113281 18.06078125 1.86726563 18.7465625 1.86328125 19.453125 C1.86934954 22.57222638 2.00658545 25.01975635 3 28 C2.01 28.33 1.02 28.66 0 29 C0 19.43 0 9.86 0 0 Z " fill="#3C5588" transform="translate(1164,174)"/>
<path d="M0 0 C2.1875 0.3125 2.1875 0.3125 4 1 C4.33 2.65 4.66 4.3 5 6 C3.02 6.99 3.02 6.99 1 8 C1 7.01 1 6.02 1 5 C-0.32 4.34 -1.64 3.68 -3 3 C-1.75 1.4375 -1.75 1.4375 0 0 Z " fill="#117392" transform="translate(628,536)"/>
<path d="M0 0 C1.89213369 2.38573379 3.02391783 4.07175348 4 7 C2.68 7.99 1.36 8.98 0 10 C-0.9097643 6.92954549 -1.17299981 4.20049657 -1 1 C-0.67 0.67 -0.34 0.34 0 0 Z " fill="#324C7A" transform="translate(1190,32)"/>
<path d="M0 0 C1.32 0 2.64 0 4 0 C4 0.66 4 1.32 4 2 C4.99 2 5.98 2 7 2 C7 3.32 7 4.64 7 6 C3.75728494 5.4409112 2.06942576 4.5867822 0 2 C0 1.34 0 0.68 0 0 Z " fill="#137392" transform="translate(632,544)"/>
<path d="M0 0 C2.88437779 1.29299694 4.87219421 2.65941363 7 5 C6.67 5.99 6.34 6.98 6 8 C5.01 7.67 4.02 7.34 3 7 C3 6.01 3 5.02 3 4 C1.56009377 1.82967524 1.56009377 1.82967524 0 0 Z " fill="#126493" transform="translate(1010,925)"/>
<path d="M0 0 C0.66 0.99 1.32 1.98 2 3 C1.67 3.66 1.34 4.32 1 5 C-1.475 4.01 -1.475 4.01 -4 3 C-3 1 -3 1 0 0 Z " fill="#1F3971" transform="translate(1142,718)"/>
<path d="M0 0 C0.66 0.99 1.32 1.98 2 3 C0.02 3.66 -1.96 4.32 -4 5 C-4 4.01 -4 3.02 -4 2 C-2.68 1.34 -1.36 0.68 0 0 Z " fill="#223E7B" transform="translate(1127,645)"/>
<path d="M0 0 C1.9375 0.8125 1.9375 0.8125 4 2 C4.33 2.99 4.66 3.98 5 5 C4.01 5.495 4.01 5.495 3 6 C3 5.01 3 4.02 3 3 C1.02 3.99 1.02 3.99 -1 5 C-0.67 3.35 -0.34 1.7 0 0 Z " fill="#0F7392" transform="translate(546,454)"/>
<path d="M0 0 C0.66 0 1.32 0 2 0 C2.66 1.98 3.32 3.96 4 6 C3.01 6.33 2.02 6.66 1 7 C0.67 4.69 0.34 2.38 0 0 Z " fill="#2D3E71" transform="translate(1266,63)"/>
</svg>
