<svg xmlns="http://www.w3.org/2000/svg" version="1.1" xmlns:xlink="http://www.w3.org/1999/xlink" xmlns:svgjs="http://svgjs.dev/svgjs" width="1500" height="935" viewBox="0 0 1500 935"><g transform="matrix(1,0,0,1,-0.9090909090909918,0.3785425101215196)"><svg viewBox="0 0 396 247" data-background-color="#929395" preserveAspectRatio="xMidYMid meet" height="935" width="1500" xmlns="http://www.w3.org/2000/svg" xmlns:xlink="http://www.w3.org/1999/xlink"><g id="tight-bounds" transform="matrix(1,0,0,1,0.2400000000000091,-0.09999999999999432)"><svg viewBox="0 0 395.52 247.2" height="247.2" width="395.52"><g><svg></svg></g><g><svg viewBox="0 0 395.52 247.2" height="247.2" width="395.52"><g transform="matrix(1,0,0,1,75.54432,69.9202735042735)"><svg viewBox="0 0 244.43135999999998 107.359452991453" height="107.359452991453" width="244.43135999999998"><g><svg viewBox="0 0 244.43135999999998 107.359452991453" height="107.359452991453" width="244.43135999999998"><g><svg viewBox="0 0 244.43135999999998 107.359452991453" height="107.359452991453" width="244.43135999999998"><g><svg viewBox="0 0 244.43135999999998 107.359452991453" height="107.359452991453" width="244.43135999999998"><g id="textblocktransform"><svg viewBox="0 0 244.43135999999998 107.359452991453" height="107.359452991453" width="244.43135999999998" id="textblock"><g><svg viewBox="0 0 244.43135999999998 107.359452991453" height="107.359452991453" width="244.43135999999998"><g transform="matrix(1,0,0,1,0,0)"><svg width="244.43135999999998" viewBox="-0.9 -32.8 105.29 46.25" height="107.359452991453" data-palette-color="#375a82"><path d="M11.85 1.65L11.85 1.65Q10.2 1.7 8.2 1.38 6.2 1.05 4.3 0.25 2.4-0.55 1-1.85-0.4-3.15-0.9-5.05L-0.9-5.05Q0.9-3.45 4-2.73 7.1-2 10.3-2L10.3-2Q14.55-2 17.7-2.95L17.7-2.95Q18.6-3.2 19.8-3.78 21-4.35 22.15-5.13 23.3-5.9 24.08-6.85 24.85-7.8 24.85-8.8L24.85-8.8Q24.85-9.5 24.4-10.15 23.95-10.8 22.95-11.45L22.95-11.45Q22.35-11.8 21.23-12.23 20.1-12.65 18.8-13.23 17.5-13.8 16.35-14.58 15.2-15.35 14.53-16.43 13.85-17.5 14-18.9L14-18.9Q14.25-20.95 15.88-22.98 17.5-25 19.98-26.78 22.45-28.55 25.33-29.9 28.2-31.25 30.98-32.02 33.75-32.8 35.9-32.8L35.9-32.8Q38.1-32.8 39.68-31.95 41.25-31.1 41-29.05L41-29.05Q40.9-28.15 39.78-26.9 38.65-25.65 37.1-24.15 35.55-22.65 34.02-21 32.5-19.35 31.53-17.65 30.55-15.95 30.65-14.35L30.65-14.35Q29.85-15 29.48-15.8 29.1-16.6 29.1-17.45L29.1-17.45Q29.1-18.65 29.6-19.9 30.1-21.15 30.85-22.28 31.6-23.4 32.25-24.2L32.25-24.2Q33.4-25.6 34.85-26.85 36.3-28.1 37.8-29.15L37.8-29.15Q37.35-29.8 36.25-29.8L36.25-29.8Q35.1-29.8 33.68-29.3 32.25-28.8 31.03-28.23 29.8-27.65 29.3-27.35L29.3-27.35Q27.15-26.2 24.98-24.75 22.8-23.3 20.98-21.8 19.15-20.3 18.03-19.03 16.9-17.75 16.8-16.9L16.8-16.9Q16.7-15.85 17.7-15.13 18.7-14.4 20.3-13.8 21.9-13.2 23.45-12.4L23.45-12.4Q25.55-11.35 26.5-10 27.45-8.65 27.45-7.2L27.45-7.2Q27.45-5.4 26.1-3.68 24.75-1.95 22.45-0.8L22.45-0.8Q20.4 0.2 18.18 0.75 15.95 1.3 14.23 1.48 12.5 1.65 11.85 1.65ZM43.95 1.95L43.95 1.95Q43.3 1.7 42.67 1.05 42.05 0.4 42.05-1.2L42.05-1.2Q42.05-2.55 42.5-4.03 42.95-5.5 43.65-6.95L43.65-6.95Q42.35-5.3 40.82-3.7 39.3-2.1 37.77-1.07 36.25-0.05 34.95-0.05L34.95-0.05Q33.85-0.05 33.12-0.65 32.4-1.25 32.4-2.5L32.4-2.5Q32.4-3.4 32.75-4.45L32.75-4.45Q33.1-5.5 34-6.8 34.9-8.1 35.97-9.38 37.05-10.65 37.85-11.55L37.85-11.55Q38.4-12.2 38.4-12.6L38.4-12.6Q38.4-13.1 37.85-13.1L37.85-13.1Q37.25-13.1 36.15-12.3L36.15-12.3Q35-11.45 33.7-10.23 32.4-9 31.25-7.88 30.1-6.75 29.3-6.1L29.3-6.1Q29.15-5.95 29-5.95L29-5.95Q28.75-5.95 28.75-6.25L28.75-6.25Q28.75-6.5 29.2-6.9L29.2-6.9Q31.4-8.8 32.85-10.38 34.3-11.95 35.7-13.05L35.7-13.05Q36.45-13.65 37.25-13.93 38.05-14.2 38.75-14.2L38.75-14.2Q39.95-14.2 40.75-13.5 41.55-12.8 41.55-11.55L41.55-11.55Q41.55-10.6 41.05-9.55L41.05-9.55Q40.5-8.3 39.57-7.08 38.65-5.85 37.8-4.7L37.8-4.7Q37.15-3.75 36.85-3.15 36.55-2.55 36.55-2.25L36.55-2.25Q36.55-1.85 36.95-1.85L36.95-1.85Q37.35-1.85 38.1-2.3 38.85-2.75 39.65-3.45L39.65-3.45Q40.2-3.95 40.62-4.38 41.05-4.8 41.25-5L41.25-5Q42.4-6.2 43.55-7.58 44.7-8.95 45.55-10.1L45.55-10.1Q46.2-10.95 46.57-11.4 46.95-11.85 47.4-12.35L47.4-12.35Q48.25-13.3 49.2-13.35L49.2-13.35Q49.75-13.35 50.47-13.13 51.2-12.9 51.9-12.25L51.9-12.25Q51.4-11.55 50.42-10.33 49.45-9.1 48.32-7.63 47.2-6.15 46.17-4.6 45.15-3.05 44.5-1.7 43.85-0.35 43.85 0.65L43.85 0.65Q43.85 1.35 44.25 1.75L44.25 1.75Q44.45 1.95 44.25 1.98 44.05 2 43.95 1.95ZM58.8-15.3L58.8-15.3Q58.1-15.3 57.75-15.75 57.4-16.2 57.4-16.7L57.4-16.7Q57.4-17.7 58.35-18.68 59.3-19.65 60.35-19.65L60.35-19.65Q61.05-19.65 61.4-19.2 61.75-18.75 61.75-18.25L61.75-18.25Q61.75-17.2 60.82-16.25 59.9-15.3 58.8-15.3ZM34.85 13.45L34.85 13.45Q32.45 13.45 30.25 12.75 28.05 12.05 26.65 10.48 25.25 8.9 25.25 6.3L25.25 6.3 25.25 6.2Q25.25 5.9 25.45 5.9L25.45 5.9Q25.65 5.9 25.75 6.25L25.75 6.25Q26.3 9.05 28.45 10.8 30.6 12.55 33.4 12.55L33.4 12.55Q35.15 12.55 37.25 11.58 39.35 10.6 41.5 8.9 43.65 7.2 45.7 5.05 47.75 2.9 49.45 0.55L49.45 0.55Q50.05-0.25 51.1-1.83 52.15-3.4 53.27-5.3 54.4-7.2 55.15-8.9L55.15-8.9Q54.9-8.65 54.35-8.13 53.8-7.6 53.3-7.1 52.8-6.6 52.5-6.35L52.5-6.35Q52.45-6.3 52.42-6.3 52.4-6.3 52.4-6.3L52.4-6.3Q52.15-6.3 52.15-6.65L52.15-6.65Q52.15-6.9 52.4-7.1L52.4-7.1Q52.8-7.45 53.67-8.33 54.55-9.2 55.3-10.3 56.05-11.4 56.05-12.3L56.05-12.3Q56.05-12.9 55.45-13.15L55.45-13.15Q55.35-13.2 55.35-13.3L55.35-13.3Q55.35-13.65 55.75-13.65L55.75-13.65Q56.75-13.65 57.3-12.93 57.85-12.2 57.85-10.95L57.85-10.95Q57.85-9.55 57.25-7.63 56.65-5.7 55.65-3.6 54.65-1.5 53.5 0.5 52.35 2.5 51.27 4.08 50.2 5.65 49.4 6.5L49.4 6.5Q47.65 8.35 45.25 9.95 42.85 11.55 40.17 12.5 37.5 13.45 34.85 13.45ZM62.64 0.05L62.64 0.05Q61.09 0.05 60.24-0.93 59.39-1.9 59.39-3.45L59.39-3.45Q59.39-4.9 60.17-6.65 60.94-8.4 62.64-10.2L62.64-10.2Q64.39-12.1 66.99-13.28 69.59-14.45 71.94-14.45L71.94-14.45Q73.84-14.45 75.19-13.63 76.54-12.8 76.99-11.55L76.99-11.55Q77.54-11.55 78.37-11.25 79.19-10.95 79.19-10.15L79.19-10.15Q79.19-9.6 78.64-8.9L78.64-8.9Q78.29-8.4 77.42-7.4 76.54-6.4 75.79-5.25L75.79-5.25Q75.19-4.35 74.84-3.58 74.49-2.8 74.49-2.25L74.49-2.25Q74.49-1.5 75.24-1.5L75.24-1.5Q76.09-1.5 77.79-2.45L77.79-2.45Q79.64-3.5 81.34-4.85 83.04-6.2 83.99-7L83.99-7Q84.24-7.2 84.34-7.2L84.34-7.2Q84.54-7.2 84.54-6.95L84.54-6.95Q84.54-6.65 84.29-6.4L84.29-6.4Q83.84-6 82.54-4.9 81.24-3.8 79.57-2.6 77.89-1.4 76.29-0.65L76.29-0.65Q75.49-0.3 74.82-0.13 74.14 0.05 73.59 0.05L73.59 0.05Q72.24 0.05 71.54-0.73 70.84-1.5 70.84-2.75L70.84-2.75Q70.84-3.25 70.99-3.8 71.14-4.35 71.34-4.9L71.34-4.9 71.69-5.75Q70.39-4.15 69.09-3.08 67.79-2 66.49-1.2L66.49-1.2Q65.39-0.55 64.42-0.25 63.44 0.05 62.64 0.05ZM64.19-1.25L64.19-1.25Q65.09-1.25 66.79-2.33 68.49-3.4 70.74-5.65L70.74-5.65Q71.04-5.95 71.87-6.73 72.69-7.5 73.64-8.47 74.59-9.45 75.27-10.43 75.94-11.4 75.94-12.05L75.94-12.05Q75.94-13 74.29-13L74.29-13Q72.84-13 70.82-11.88 68.79-10.75 66.94-8.55L66.94-8.55Q65.04-6.3 64.17-4.67 63.29-3.05 63.29-2.2L63.29-2.2Q63.29-1.25 64.19-1.25ZM83.44 0.25L83.44 0.25Q82.94 0.25 82.24 0.03 81.54-0.2 80.84-0.8L80.84-0.8Q81.39-1.55 82.42-2.83 83.44-4.1 84.59-5.65 85.74-7.2 86.74-8.75L86.74-8.75Q85.94-7.95 84.99-7.05 84.04-6.15 83.09-5.4L83.09-5.4Q82.89-5.2 82.64-5.2L82.64-5.2Q82.44-5.2 82.44-5.4L82.44-5.4Q82.44-5.65 82.84-6L82.84-6Q84.24-7.25 85.97-8.88 87.69-10.5 88.49-12.2L88.49-12.2Q88.74-12.8 88.74-13.3L88.74-13.3Q88.74-13.95 88.49-14.1L88.49-14.1Q88.29-14.25 88.29-14.5L88.29-14.5Q88.29-14.95 88.74-14.95L88.74-14.95Q88.99-14.95 89.14-14.85L89.14-14.85Q89.69-14.6 90.19-13.9 90.69-13.2 90.69-11.8L90.69-11.8Q90.69-11 90.49-9.98 90.29-8.95 89.79-7.65L89.79-7.65Q90.54-8.65 91.32-9.6 92.09-10.55 92.74-11.3L92.74-11.3Q94.09-12.85 95.47-13.53 96.84-14.2 97.94-14.2L97.94-14.2Q99.24-14.2 100.04-13.45 100.84-12.7 100.84-11.5L100.84-11.5Q100.84-10.55 100.34-9.55L100.34-9.55Q100.19-9.15 99.64-8.33 99.09-7.5 98.44-6.55 97.79-5.6 97.24-4.85L97.24-4.85Q96.59-4.05 96.34-3.48 96.09-2.9 96.09-2.55L96.09-2.55Q96.09-2.05 96.64-2.05L96.64-2.05Q97.34-2.05 98.59-2.8L98.59-2.8Q99.34-3.25 100.32-4.03 101.29-4.8 102.27-5.63 103.24-6.45 103.84-7L103.84-7Q104.04-7.2 104.19-7.2L104.19-7.2Q104.39-7.2 104.39-6.95L104.39-6.95Q104.39-6.65 104.14-6.4L104.14-6.4Q102.64-5 100.67-3.35 98.69-1.7 96.79-0.8L96.79-0.8Q95.24-0.05 93.94-0.05L93.94-0.05Q92.84-0.05 92.19-0.63 91.54-1.2 91.54-2.3L91.54-2.3Q91.54-3.1 91.94-4.2L91.94-4.2Q92.44-5.55 93.37-6.9 94.29-8.25 95.32-9.47 96.34-10.7 97.09-11.55L97.09-11.55Q97.74-12.25 97.74-12.75L97.74-12.75Q97.74-13.2 97.14-13.2L97.14-13.2Q96.54-13.2 95.37-12.53 94.19-11.85 92.74-10.35L92.74-10.35Q90.69-8.2 89.14-5.7 87.59-3.2 85.59-1L85.59-1Q84.49 0.25 83.44 0.25Z" opacity="1" transform="matrix(1,0,0,1,0,0)" fill="#375a82" class="wordmark-text-0" data-fill-palette-color="primary" id="text-0"></path></svg></g></svg></g></svg></g></svg></g></svg></g></svg></g></svg></g><g><path d="M245.816 0c68.262 0 123.6 55.338 123.6 123.6 0 68.262-55.338 123.6-123.6 123.6-43.844 0-82.356-22.829-104.299-57.248h5.79c21.338 31.617 57.495 52.407 98.509 52.407 65.589 0 118.759-53.17 118.759-118.759 0-65.589-53.17-118.759-118.759-118.759-41.013 0-77.171 20.79-98.509 52.407l-5.79 0c21.942-34.419 60.455-57.248 104.299-57.248z" fill="#375a82" stroke="transparent" data-fill-palette-color="tertiary"></path></g></svg></g><defs></defs></svg><rect width="395.52" height="247.2" fill="none" stroke="none" visibility="hidden"></rect></g></svg></g></svg>