<svg xmlns="http://www.w3.org/2000/svg" version="1.1" xmlns:xlink="http://www.w3.org/1999/xlink" xmlns:svgjs="http://svgjs.dev/svgjs" width="1500" height="1500" viewBox="0 0 1500 1500"><rect width="1500" height="1500" fill="#000000"></rect><g transform="matrix(0.6666666666666666,0,0,0.6666666666666666,249.39393939393943,722.1577485388977)"><svg viewBox="0 0 396 22" data-background-color="#ffffff" preserveAspectRatio="xMidYMid meet" height="83" width="1500" xmlns="http://www.w3.org/2000/svg" xmlns:xlink="http://www.w3.org/1999/xlink"><g id="tight-bounds" transform="matrix(1,0,0,1,0.2400000000000091,0.06981082188406162)"><svg viewBox="0 0 395.52 21.86037835623185" height="21.86037835623185" width="395.52"><g><svg viewBox="0 0 395.52 21.86037835623185" height="21.86037835623185" width="395.52"><g><svg viewBox="0 0 395.52 21.86037835623185" height="21.86037835623185" width="395.52"><g><svg viewBox="0 0 419.13652279539986 23.165662851999485" height="21.86037835623185" width="395.52"><g transform="matrix(1,0,0,1,23.616522795399884,0)"><svg viewBox="0 0 395.52 23.165662851999485" height="23.165662851999485" width="395.52"><g id="textblocktransform"><svg viewBox="0 0 395.52 23.165662851999485" height="23.165662851999485" width="395.52" id="textblock"><g><svg viewBox="0 0 395.52 23.165662851999485" height="23.165662851999485" width="395.52"><g transform="matrix(1,0,0,1,0,0)"><svg width="395.52" viewBox="1.55 -40.4 777.6400000000001 45.55" height="23.165662851999485" data-palette-color="#c10000"><path d="M27.45-9.75Q27.45-6.65 25.88-4.3 24.3-1.95 21.33-0.65 18.35 0.65 14.25 0.65L14.25 0.65Q6.25 0.65 1.55-3.95L1.55-3.95 4.75-7.5Q8.65-3.9 14.25-3.9L14.25-3.9Q17.35-3.9 19.38-5.35 21.4-6.8 21.4-9.45L21.4-9.45Q21.4-11 20.78-12.05 20.15-13.1 18.65-13.93 17.15-14.75 14.35-15.6L14.35-15.6Q8.6-17.3 5.9-19.65 3.2-22 3.2-25.85L3.2-25.85Q3.2-28.6 4.73-30.73 6.25-32.85 8.95-34.02 11.65-35.2 15.05-35.2L15.05-35.2Q22-35.2 26.6-31.05L26.6-31.05 23.55-27.6Q20-30.65 15.4-30.65L15.4-30.65Q12.6-30.65 10.88-29.5 9.15-28.35 9.15-26.2L9.15-26.2Q9.15-24.85 9.88-23.9 10.6-22.95 12.33-22.18 14.05-21.4 17.2-20.45L17.2-20.45Q22.2-18.95 24.83-16.6 27.45-14.25 27.45-9.75L27.45-9.75ZM56.95-34.5L56.95-11.3Q56.95-7.8 55.52-5.1 54.1-2.4 51.4-0.88 48.7 0.65 44.95 0.65L44.95 0.65Q39.3 0.65 36.17-2.6 33.05-5.85 33.05-11.3L33.05-11.3 33.05-34.5 38.85-34.5 38.85-12.4Q38.85-8.1 40.32-6.03 41.8-3.95 44.95-3.95L44.95-3.95Q48.15-3.95 49.62-6.03 51.1-8.1 51.1-12.4L51.1-12.4 51.1-34.5 56.95-34.5ZM85.4-34.5L85.4-11.85Q85.4-6.4 82.27-2.88 79.15 0.65 72.8 0.65L72.8 0.65Q67.34 0.65 63-2.55L63-2.55 65.34-6.2Q67.3-4.95 69.05-4.42 70.8-3.9 72.59-3.9L72.59-3.9Q75.84-3.9 77.72-6 79.59-8.1 79.59-11.95L79.59-11.95 79.59-30.05 69.25-30.05 69.25-34.5 85.4-34.5ZM111.04-8.3L98.74-8.3 96.34 0 90.39 0 101.39-34.5 108.59-34.5 119.59 0 113.44 0 111.04-8.3ZM99.94-12.8L109.84-12.8 104.89-30 99.94-12.8ZM138.89 0L127.89-29.35Q128.69-21.15 128.69-15.65L128.69-15.65 128.69 0 123.54 0 123.54-34.5 131.09-34.5 142.09-5.15Q141.74-8.85 141.52-11.83 141.29-14.8 141.29-18.8L141.29-18.8 141.29-34.5 146.44-34.5 146.44 0 138.89 0ZM208.19-23.65Q208.19-17.85 204.59-15.08 200.99-12.3 194.74-12.3L194.74-12.3 190.54-12.3 190.54 0 184.79 0 184.79-34.5 194.34-34.5Q200.99-34.5 204.59-31.78 208.19-29.05 208.19-23.65L208.19-23.65ZM202.14-23.65Q202.14-30.15 194.74-30.15L194.74-30.15 190.54-30.15 190.54-16.7 194.79-16.7Q198.29-16.7 200.21-18.3 202.14-19.9 202.14-23.65L202.14-23.65ZM220.13-4.2Q220.13-6.2 221.53-7.6 222.93-9 224.93-9L224.93-9Q226.98-9 228.38-7.6 229.78-6.2 229.78-4.2L229.78-4.2Q229.78-2.15 228.38-0.75 226.98 0.65 224.93 0.65L224.93 0.65Q222.93 0.65 221.53-0.75 220.13-2.15 220.13-4.2L220.13-4.2ZM287.53-40.4L287.53 5.15 282.38 5.15 282.38-40.4 287.53-40.4ZM358.02-17.45Q358.02-7.65 353.47-3.83 348.92 0 341.97 0L341.97 0 333.52 0 333.52-34.5 341.42-34.5Q348.92-34.5 353.47-30.88 358.02-27.25 358.02-17.45L358.02-17.45ZM351.92-17.45Q351.92-24.85 349.35-27.45 346.77-30.05 342.52-30.05L342.52-30.05 339.32-30.05 339.32-4.4 342.57-4.4Q351.92-4.4 351.92-17.45L351.92-17.45ZM371.42-30.1L371.42-19.7 383.92-19.7 383.92-15.35 371.42-15.35 371.42-4.4 386.67-4.4 386.67 0 365.62 0 365.62-34.5 386.37-34.5 385.72-30.1 371.42-30.1ZM405.07-5.5L413.32-34.5 419.22-34.5 408.27 0 401.67 0 390.72-34.5 396.92-34.5 405.07-5.5ZM448.07-17.25Q448.07-9.05 444.69-4.2 441.32 0.65 434.97 0.65L434.97 0.65Q428.62 0.65 425.24-4.13 421.87-8.9 421.87-17.2L421.87-17.2Q421.87-25.4 425.24-30.3 428.62-35.2 434.97-35.2L434.97-35.2Q441.32-35.2 444.69-30.38 448.07-25.55 448.07-17.25L448.07-17.25ZM442.12-17.25Q442.12-24.05 440.42-27.35 438.72-30.65 434.97-30.65L434.97-30.65Q431.22-30.65 429.52-27.35 427.82-24.05 427.82-17.2L427.82-17.2Q427.82-10.45 429.54-7.15 431.27-3.85 434.97-3.85L434.97-3.85Q438.72-3.85 440.42-7.15 442.12-10.45 442.12-17.25L442.12-17.25ZM478.16-23.65Q478.16-17.85 474.56-15.08 470.96-12.3 464.71-12.3L464.71-12.3 460.51-12.3 460.51 0 454.76 0 454.76-34.5 464.31-34.5Q470.96-34.5 474.56-31.78 478.16-29.05 478.16-23.65L478.16-23.65ZM472.11-23.65Q472.11-30.15 464.71-30.15L464.71-30.15 460.51-30.15 460.51-16.7 464.76-16.7Q468.26-16.7 470.19-18.3 472.11-19.9 472.11-23.65L472.11-23.65ZM507.41-9.75Q507.41-6.65 505.84-4.3 504.26-1.95 501.29-0.65 498.31 0.65 494.21 0.65L494.21 0.65Q486.21 0.65 481.51-3.95L481.51-3.95 484.71-7.5Q488.61-3.9 494.21-3.9L494.21-3.9Q497.31-3.9 499.34-5.35 501.36-6.8 501.36-9.45L501.36-9.45Q501.36-11 500.74-12.05 500.11-13.1 498.61-13.93 497.11-14.75 494.31-15.6L494.31-15.6Q488.56-17.3 485.86-19.65 483.16-22 483.16-25.85L483.16-25.85Q483.16-28.6 484.69-30.73 486.21-32.85 488.91-34.02 491.61-35.2 495.01-35.2L495.01-35.2Q501.96-35.2 506.56-31.05L506.56-31.05 503.51-27.6Q499.96-30.65 495.36-30.65L495.36-30.65Q492.56-30.65 490.84-29.5 489.11-28.35 489.11-26.2L489.11-26.2Q489.11-24.85 489.84-23.9 490.56-22.95 492.29-22.18 494.01-21.4 497.16-20.45L497.16-20.45Q502.16-18.95 504.79-16.6 507.41-14.25 507.41-9.75L507.41-9.75ZM551.4-30.1L551.4-19.7 563.9-19.7 563.9-15.35 551.4-15.35 551.4-4.4 566.65-4.4 566.65 0 545.6 0 545.6-34.5 566.35-34.5 565.7-30.1 551.4-30.1ZM588.85 0L577.85-29.35Q578.65-21.15 578.65-15.65L578.65-15.65 578.65 0 573.5 0 573.5-34.5 581.05-34.5 592.05-5.15Q591.7-8.85 591.48-11.83 591.25-14.8 591.25-18.8L591.25-18.8 591.25-34.5 596.4-34.5 596.4 0 588.85 0ZM615.85 0.65Q609.15 0.65 605.47-3.93 601.8-8.5 601.8-17.3L601.8-17.3Q601.8-23 603.82-27.05 605.85-31.1 609.27-33.15 612.7-35.2 616.85-35.2L616.85-35.2Q620.2-35.2 622.57-34.23 624.95-33.25 627.1-31.2L627.1-31.2 623.85-27.85Q622.25-29.3 620.62-29.98 619-30.65 617-30.65L617-30.65Q613-30.65 610.42-27.43 607.85-24.2 607.85-17.3L607.85-17.3Q607.85-10.2 609.87-7.03 611.9-3.85 616.1-3.85L616.1-3.85Q619.3-3.85 621.8-5.3L621.8-5.3 621.8-14.8 615.95-14.8 615.35-19.25 627.45-19.25 627.45-2.5Q624.8-1 622.02-0.18 619.25 0.65 615.85 0.65L615.85 0.65ZM655.35-34.5L655.35-30.1 647.85-30.1 647.85-4.45 655.35-4.45 655.35 0 634.55 0 634.55-4.45 642.05-4.45 642.05-30.1 634.55-30.1 634.55-34.5 655.35-34.5ZM678.84 0L667.84-29.35Q668.64-21.15 668.64-15.65L668.64-15.65 668.64 0 663.49 0 663.49-34.5 671.04-34.5 682.04-5.15Q681.69-8.85 681.47-11.83 681.24-14.8 681.24-18.8L681.24-18.8 681.24-34.5 686.39-34.5 686.39 0 678.84 0ZM701.39-30.1L701.39-19.7 713.89-19.7 713.89-15.35 701.39-15.35 701.39-4.4 716.64-4.4 716.64 0 695.59 0 695.59-34.5 716.34-34.5 715.69-30.1 701.39-30.1ZM731.39-30.1L731.39-19.7 743.89-19.7 743.89-15.35 731.39-15.35 731.39-4.4 746.64-4.4 746.64 0 725.59 0 725.59-34.5 746.34-34.5 745.69-30.1 731.39-30.1ZM777.24-24.5Q777.24-20.9 775.09-18.5 772.94-16.1 769.39-15L769.39-15 779.19 0 772.44 0 763.74-14.2 759.99-14.2 759.99 0 754.19 0 754.19-34.5 763.79-34.5Q777.24-34.5 777.24-24.5L777.24-24.5ZM771.19-24.5Q771.19-27.5 769.46-28.85 767.74-30.2 764.14-30.2L764.14-30.2 759.99-30.2 759.99-18.45 764.29-18.45Q767.69-18.45 769.44-19.9 771.19-21.35 771.19-24.5L771.19-24.5Z" opacity="1" transform="matrix(1,0,0,1,0,0)" fill="#ffffff" class="wordmark-text-0" data-fill-palette-color="primary" id="text-0"></path></svg></g></svg></g></svg></g></svg></g><g transform="matrix(1,0,0,1,0,0.21752557418027507)"><svg viewBox="0 0 18.147665771951253 22.730611703638935" height="22.730611703638935" width="18.147665771951253"><g><svg xmlns="http://www.w3.org/2000/svg" xmlns:xlink="http://www.w3.org/1999/xlink" version="1.1" x="0" y="0" viewBox="10.081 0 79.838 100" enable-background="new 0 0 100 100" xml:space="preserve" height="22.730611703638935" width="18.147665771951253" class="icon-icon-0" data-fill-palette-color="accent" id="icon-0"><g fill="#003c3b" data-fill-palette-color="accent"><path fill="#ffffff" d="M88.507 8.361A39.9 39.9 0 0 1 76.612 10.164C73.903 10.164 71.257 9.894 68.702 9.381A39.8 39.8 0 0 1 51.05 0.905 39 39 0 0 1 50 0C49.656 0.307 49.305 0.61 48.95 0.905A39.8 39.8 0 0 1 31.297 9.381C28.743 9.895 26.097 10.164 23.388 10.164A39.9 39.9 0 0 1 10.081 7.891V50.559C10.081 74.833 27.188 95.113 50 100 72.812 95.113 89.919 74.833 89.919 50.56V7.892C89.453 8.058 88.983 8.213 88.507 8.361M20.394 71.207A45.35 45.35 0 0 1 15.405 50.56V14.783C18.028 15.252 20.698 15.488 23.388 15.488 26.406 15.488 29.42 15.188 32.348 14.598A45.3 45.3 0 0 0 50 6.833 45.4 45.4 0 0 0 65.477 14.102zM84.596 50.56C84.596 60.973 80.973 71.137 74.395 79.18 68.146 86.82 59.519 92.244 50 94.542 44.343 93.176 39.005 90.698 34.29 87.315L84.596 23.593z" data-fill-palette-color="accent"></path></g></svg></g></svg></g></svg></g></svg></g></svg></g><defs></defs></svg><rect width="395.52" height="21.86037835623185" fill="none" stroke="none" visibility="hidden"></rect></g></svg></g></svg>